<?xml version="1.0" encoding="UTF-8"?>
<svg version="1.1" xmlns="http://www.w3.org/2000/svg" width="512" height="512">
<path d="M0 0 C1.32741211 0.24943359 1.32741211 0.24943359 2.68164062 0.50390625 C45.42415179 8.72947861 84.47497166 28.2094876 117 57 C117.89332031 57.78246094 118.78664063 58.56492188 119.70703125 59.37109375 C129.0019077 67.60940975 137.30587457 76.24541386 145 86 C145.78117187 86.96421875 146.56234375 87.9284375 147.3671875 88.921875 C177.64211083 127.0315229 197.80251613 176.77085307 198.23828125 225.7734375 C198.2480751 226.686698 198.25786896 227.5999585 198.26795959 228.54089355 C198.43939427 248.679507 198.34633177 268.23642897 194 288 C193.67854004 289.47702393 193.67854004 289.47702393 193.35058594 290.98388672 C184.25328013 331.40532192 165.36000217 367.99458294 138 399 C137.34112793 399.75361816 137.34112793 399.75361816 136.66894531 400.52246094 C101.37193935 440.73854556 52.43291412 467.21362539 0 477 C-0.88333008 477.16516113 -1.76666016 477.33032227 -2.67675781 477.50048828 C-29.47626181 482.2312514 -59.28012722 482.1476778 -86 477 C-86.87188965 476.83902832 -87.7437793 476.67805664 -88.64208984 476.51220703 C-133.10780764 468.08533424 -173.45659798 447.46372244 -206.75390625 417.0234375 C-208.52725596 415.42588072 -210.31683982 413.91616508 -212.1875 412.4375 C-215.11578078 409.89965666 -217.53780834 407.21470196 -220.0390625 404.265625 C-221.39273918 402.70161608 -222.78654509 401.17176524 -224.2109375 399.671875 C-235.41777617 387.84847886 -245.03857902 374.19821938 -253 360 C-253.67047363 358.80842285 -253.67047363 358.80842285 -254.35449219 357.59277344 C-270.17757382 329.14877633 -279.62981764 299.20415252 -284 267 C-284.15686279 265.85942139 -284.15686279 265.85942139 -284.31689453 264.69580078 C-291.54216902 203.88199673 -273.62075437 140.1600061 -236.2734375 91.82421875 C-231.95338508 86.45755569 -227.53083079 81.18983143 -223 76 C-222.55978516 75.4951709 -222.11957031 74.9903418 -221.66601562 74.47021484 C-217.03319056 69.18817102 -212.33991529 64.16570652 -206.953125 59.6484375 C-205.66469115 58.56099933 -204.4028559 57.44113436 -203.171875 56.2890625 C-181.56712125 36.1302962 -154.5990445 21.23598994 -127 11 C-125.87980469 10.58105469 -124.75960937 10.16210938 -123.60546875 9.73046875 C-84.82954081 -3.97819264 -40.49624438 -7.93064462 0 0 Z " fill="#0FA6F9" transform="translate(314,21)"/>
<path d="M0 0 C1.04344013 2.71294435 1.06815405 3.81706019 0.03515625 6.58984375 C-1.2488327 10.81973943 -1.25668692 14.54959287 -1.1875 18.9375 C-1.18685547 19.71029297 -1.18621094 20.48308594 -1.18554688 21.27929688 C-1.07444043 35.88362123 4.06836038 46.81517474 14.27734375 57.109375 C16 59 16 59 16 61 C16.56460938 61.23847656 17.12921875 61.47695312 17.7109375 61.72265625 C20.49012221 63.27349823 22.36463472 65.19507413 24.625 67.4375 C31.36660643 73.70537192 39.01874192 78.20680174 46.95458984 82.80834961 C47.6295752 83.20159424 48.30456055 83.59483887 49 84 C49.89517334 84.43602539 50.79034668 84.87205078 51.71264648 85.32128906 C54 87 54 87 54.62768555 89.37817383 C54.6306665 90.31169678 54.63364746 91.24521973 54.63671875 92.20703125 C54.65549072 93.25858398 54.6742627 94.31013672 54.69360352 95.39355469 C54.69158936 96.52180664 54.6895752 97.65005859 54.6875 98.8125 C54.72675929 101.16805761 54.77112131 103.52353512 54.8203125 105.87890625 C54.84254883 107.06758301 54.86478516 108.25625977 54.88769531 109.48095703 C55.08521958 115.67033708 55.71060121 121.8104133 56.34057617 127.96801758 C56.78144001 132.3368819 57.10783363 136.60038775 57 141 C57.928125 141.10957031 58.85625 141.21914063 59.8125 141.33203125 C63.90959819 141.91776909 67.86695473 142.91679797 71.87963867 143.91699219 C84.56329289 147.04895469 97.27840797 149.30180849 110.1875 151.25 C111.01080811 151.37442474 111.83411621 151.49884949 112.68237305 151.62704468 C123.10730488 153.19314927 133.5462385 154.64006607 144 156 C143.14100469 160.17130795 141.03339158 162.76967981 138.375 166 C133.45320305 172.11389885 128.69684018 178.33668738 124 184.625 C123.35337402 185.48996094 122.70674805 186.35492188 122.04052734 187.24609375 C120.87400452 188.8076052 119.70806738 190.36955453 118.54296875 191.93212891 C118.03378906 192.61452637 117.52460938 193.29692383 117 194 C116.51942139 194.74765625 116.03884277 195.4953125 115.54370117 196.265625 C114.77956909 197.12414062 114.77956909 197.12414062 114 198 C110.93342128 198.01849193 108.31777078 197.81734319 105.3125 197.375 C104.46905029 197.27324463 103.62560059 197.17148926 102.7565918 197.06665039 C98.63274055 196.55828341 94.55061602 195.93545749 90.46875 195.16015625 C83.31019724 193.65204677 83.31019724 193.65204677 76.40625 195.2578125 C74.3407707 197.03813234 72.69900777 198.87303058 71 201 C70.01 201.86625 69.02 202.7325 68 203.625 C65.821273 205.80467105 65.821273 205.80467105 65.58740234 208.43530273 C65.75250107 211.13757001 65.75250107 211.13757001 67.92431641 212.78930664 C68.80780762 213.32418701 69.69129883 213.85906738 70.6015625 214.41015625 C71.56707031 215.00763672 72.53257813 215.60511719 73.52734375 216.22070312 C74.54957031 216.82849609 75.57179688 217.43628906 76.625 218.0625 C78.61732967 219.28231991 80.60952094 220.50236589 82.6015625 221.72265625 C83.5390332 222.28871582 84.47650391 222.85477539 85.44238281 223.43798828 C88.35299434 225.21558398 91.18589228 227.07430512 94 229 C93.566875 229.97839844 93.13375 230.95679688 92.6875 231.96484375 C88.32257072 242.0900815 88.32257072 242.0900815 88 253 C89.21690541 254.4284032 89.21690541 254.4284032 92.8125 254.375 C99.1413659 254.34452392 104.34835397 251.58821628 110 249 C110.99 248.67 111.98 248.34 113 248 C114.18586746 249.8291952 115.37151555 251.65853294 116.55615234 253.48852539 C117.56341169 255.0425127 118.57286684 256.59507886 119.58447266 258.14624023 C121.82413192 261.58913218 124.04652658 265.02809765 126.11328125 268.578125 C126.69464844 269.56296875 127.27601563 270.5478125 127.875 271.5625 C128.36742187 272.43003906 128.85984375 273.29757812 129.3671875 274.19140625 C130.87232867 276.19083913 130.87232867 276.19083913 133.296875 276.6015625 C139.04589754 275.32215575 143.39044463 270.21509362 146.93701172 265.70996094 C149.84892289 261.02575656 148.14650756 256.02455616 147 251 C146.56681677 248.52400503 146.1703187 246.04412161 145.78149414 243.56079102 C145.51511978 241.88271251 145.23232137 240.20714026 144.93139648 238.53491211 C143.51680112 230.39527453 143.51680112 230.39527453 145 227 C147.04510098 225.24534528 148.94634602 223.82903589 151.1875 222.375 C152.47723756 221.49638488 153.76494415 220.6147823 155.05078125 219.73046875 C155.71029785 219.27978027 156.36981445 218.8290918 157.04931641 218.36474609 C160.07706216 216.24646089 162.98017316 213.98270793 165.875 211.6875 C166.72868164 211.01170898 166.72868164 211.01170898 167.59960938 210.32226562 C174.17497031 205.09269603 180.68961844 199.78737703 187.19580078 194.47216797 C188.78273046 193.17728489 190.37348737 191.88709522 191.96484375 190.59765625 C202.12474985 182.34739476 212.0476462 173.82678269 221.74609375 165.0390625 C223.96418925 163.03239725 226.19431172 161.04106534 228.4375 159.0625 C229.05496094 158.51722656 229.67242187 157.97195313 230.30859375 157.41015625 C232 156 232 156 235 154 C244.14316769 174.30538319 252.9502584 194.74998489 261.68139648 215.23532104 C263.62490709 219.79348064 265.58089267 224.34582927 267.55322266 228.89160156 C268.1795031 230.33945541 268.1795031 230.33945541 268.81843567 231.81655884 C269.62544523 233.68126523 270.4353058 235.54474096 271.24833679 237.40682983 C271.78923698 238.65878647 271.78923698 238.65878647 272.34106445 239.93603516 C272.66202591 240.67407379 272.98298737 241.41211243 273.31367493 242.17251587 C274 244 274 244 274 246 C279.12431525 244.68261531 281.84346309 242.65057535 285.546875 238.9140625 C286.044151 238.41587006 286.541427 237.91767761 287.05377197 237.40438843 C288.09710074 236.35504748 289.13559493 235.3008796 290.16943359 234.2421875 C291.748712 232.62631784 293.34349271 231.02711013 294.94140625 229.4296875 C300.92848091 223.88753999 300.92848091 223.88753999 305 217 C304.97355484 214.95151759 304.93956323 212.90182602 304.81958008 210.85668945 C304.25440643 201.03980076 304.25440643 201.03980076 306.4453125 197.984375 C308.3125 196.8125 308.3125 196.8125 310.2421875 195.88671875 C313.25184701 194.36851273 313.95512614 192.0731584 315 189 C315.63473632 184.01278609 314.91106857 180.67938504 312.2734375 176.5078125 C309.40567461 173.11224049 305.24779252 171.81688318 301 171 C301 169.68 301 168.36 301 167 C302.95890881 165.60699818 304.9639118 164.27754554 307 163 C310.0154808 159.82209284 310.45589486 157.45833027 310.5 153.125 C310.38992934 149.35966619 310.28772255 146.50583058 308 143.4375 C305.17526984 141.14240674 304.12878415 140.67026384 300.8125 139.8125 C298.84106445 139.16552734 298.84106445 139.16552734 297 138 C296.26708984 135.92871094 296.26708984 135.92871094 295.8984375 133.296875 C295.75156494 132.3066333 295.60469238 131.3163916 295.45336914 130.29614258 C295.30375732 129.20841553 295.15414551 128.12068848 295 127 C294.80978271 125.85877686 294.61956543 124.71755371 294.42358398 123.54174805 C293.81787979 119.84727744 293.30966661 116.14801373 292.8125 112.4375 C292.60302734 111.18775391 292.39355469 109.93800781 292.17773438 108.65039062 C291.03157568 99.60001723 291.03157568 99.60001723 293.73657227 95.13085938 C296.03542239 92.57997102 298.44698962 90.29388663 301 88 C302.14503467 86.72156623 303.26918167 85.42384969 304.36328125 84.1015625 C304.85763672 83.52019531 305.35199219 82.93882812 305.86132812 82.33984375 C306.84848359 81.17332625 307.83545588 80.00665372 308.82226562 78.83984375 C311.4385753 75.7638654 314.08943008 72.80686791 317 70 C317.03738281 71.23234375 317.07476562 72.4646875 317.11328125 73.734375 C317.70662655 89.92516181 319.6488057 105.40929363 331.25 117.875 C340.34333817 126.07123754 349.833592 130.79583491 362 131.5 C372.9378321 132.14616624 379.48002093 134.79354981 387 143 C390.69442617 148.88799171 391.12296621 154.29640507 391.1418457 161.1418457 C391.14705734 162.19168137 391.14705734 162.19168137 391.15237427 163.26272583 C391.15970107 164.77628608 391.16506276 166.28985686 391.16866493 167.80343056 C391.1758679 170.20466805 391.1915628 172.60570561 391.21000671 175.00688171 C391.26229629 181.83195253 391.31042751 188.65691089 391.32592773 195.48217773 C391.33604451 199.66381803 391.36545848 203.84494949 391.40724754 208.02638817 C391.41950651 209.61344735 391.42468818 211.20057854 391.42244911 212.78768349 C391.29386695 224.49276564 391.29386695 224.49276564 396 235 C400.21056838 238.62486642 404.20083365 239.57653206 409.7109375 239.33984375 C413.42405991 238.78857814 416.56540437 237.49873264 420 236 C418.42458802 241.23773333 415.08208475 244.89240836 411.625 249 C410.99722656 249.7518457 410.36945313 250.50369141 409.72265625 251.27832031 C372.2299094 295.87196618 322.56702932 326.25536519 265 337 C264.11666992 337.16516113 263.23333984 337.33032227 262.32324219 337.50048828 C235.52373819 342.2312514 205.71987278 342.1476778 179 337 C178.12811035 336.83902832 177.2562207 336.67805664 176.35791016 336.51220703 C131.89219236 328.08533424 91.54340202 307.46372244 58.24609375 277.0234375 C56.47274404 275.42588072 54.68316018 273.91616508 52.8125 272.4375 C49.88421922 269.89965666 47.46219166 267.21470196 44.9609375 264.265625 C43.60726082 262.70161608 42.21345491 261.17176524 40.7890625 259.671875 C29.58222383 247.84847886 19.96142098 234.19821938 12 220 C11.55301758 219.20561523 11.10603516 218.41123047 10.64550781 217.59277344 C-5.17757382 189.14877633 -14.62981764 159.20415252 -19 127 C-19.1045752 126.23961426 -19.20915039 125.47922852 -19.31689453 124.69580078 C-24.31032473 82.66701884 -17.04272712 38.57038244 0 0 Z " fill="#236EEF" transform="translate(49,161)"/>
<path d="M0 0 C3.7229703 2.6592645 6.55543557 5.73587115 8.625 9.875 C9.38292392 18.4233878 8.50102315 25.20947207 4.625 32.875 C4.955 33.205 5.285 33.535 5.625 33.875 C6.429375 33.276875 7.23375 32.67875 8.0625 32.0625 C15.20569836 27.28908309 23.75321681 25.7639332 32.20019531 25.71386719 C34.16814056 25.69945587 34.16814056 25.69945587 36.17584229 25.68475342 C37.60160141 25.67990423 39.02736257 25.6756257 40.453125 25.671875 C41.53816944 25.66763393 41.53816944 25.66763393 42.64513397 25.66330719 C46.47452659 25.64834745 50.30388185 25.6390982 54.13330078 25.63476562 C58.06826361 25.62929125 62.00287864 25.60527614 65.9377327 25.57679367 C68.98169926 25.55807176 72.02558371 25.5529566 75.06960297 25.55142975 C76.51913093 25.5484233 77.96865816 25.54046347 79.41812897 25.52724457 C92.14621703 25.41946758 101.15722257 26.91998421 110.625 35.875 C115.625 41.66754079 115.625 41.66754079 115.625 44.875 C116.285 44.875 116.945 44.875 117.625 44.875 C118.25788324 47.87351475 118.88128116 50.87355542 119.5 53.875 C119.67402344 54.69484375 119.84804688 55.5146875 120.02734375 56.359375 C123.19263563 71.83413531 124.03263966 86.93704913 124 102.6875 C123.99918427 104.17192596 123.99918427 104.17192596 123.99835205 105.68634033 C123.95791744 121.72917616 123.08225136 137.15424135 119.625 152.875 C119.30354004 154.35202393 119.30354004 154.35202393 118.97558594 155.85888672 C113.18197725 181.601231 103.46216859 206.28404468 89.8125 228.875 C89.36865967 229.61073242 88.92481934 230.34646484 88.4675293 231.10449219 C84.34619922 237.7103889 80.27528295 242.4524104 72.625 244.875 C66.69375041 245.84751119 62.55339124 244.83176452 57.44921875 241.75 C50.72392076 234.83748815 51.05982173 226.85465015 51.10857964 217.78494453 C51.12131652 215.39968859 51.10982345 213.01557194 51.09254456 210.63035583 C51.06594107 206.42358572 51.06024496 202.21709903 51.06164551 198.01025391 C51.06388009 191.28223132 51.0495075 184.55456001 51.00605965 177.82667351 C50.9962999 175.49074775 51.004897 173.15538653 51.01475525 170.81947327 C50.99952868 160.6980179 50.42295265 152.03535257 43.16015625 144.30859375 C37.22827778 138.76915508 30.66404119 137.87455499 22.875 137.5 C9.08879181 136.61009661 -1.14699005 130.55449128 -10.6875 120.6875 C-21.82812629 107.44227901 -22.70230781 92.28514884 -23.375 75.875 C-23.88546875 76.51824219 -24.3959375 77.16148437 -24.921875 77.82421875 C-29.8371803 83.93349006 -34.92161954 89.74876134 -40.38769531 95.36987305 C-43.70017278 98.85298999 -46.35281623 101.78536116 -46.38871765 106.78552246 C-46.22319228 109.09365166 -45.97431049 111.37860776 -45.6953125 113.67578125 C-45.55789139 114.9303437 -45.55789139 114.9303437 -45.41769409 116.21025085 C-45.12353984 118.87080352 -44.81203049 121.5289906 -44.5 124.1875 C-44.2970276 125.99531402 -44.09519174 127.80325603 -43.89453125 129.61132812 C-43.40117732 134.03414329 -42.89225364 138.45491884 -42.375 142.875 C-40.95441284 143.08104858 -40.95441284 143.08104858 -39.50512695 143.29125977 C-36.21082028 143.90561803 -34.97763694 144.58272345 -32.5625 146.8125 C-31.97855469 147.33714844 -31.39460937 147.86179687 -30.79296875 148.40234375 C-27.40297088 151.92308534 -27.92914837 156.17278804 -27.95703125 160.8125 C-28.50609959 164.83558015 -29.90726291 166.79863651 -32.671875 169.66796875 C-34.56149004 171.0071684 -36.11048166 171.46640212 -38.375 171.875 C-38.375 173.195 -38.375 174.515 -38.375 175.875 C-37.323125 175.936875 -36.27125 175.99875 -35.1875 176.0625 C-29.76004751 177.2191702 -27.82196167 179.97898126 -24.5625 184.25 C-22.9507411 187.81283546 -22.84782264 189.98706694 -23.375 193.875 C-25.19854258 197.94982972 -26.89191836 201.20067487 -31.046875 203.08984375 C-31.81515625 203.67894531 -32.5834375 204.26804687 -33.375 204.875 C-33.64525012 207.82953216 -33.66813935 210.26854824 -33.4375 213.1875 C-33.32529762 214.68224204 -33.23245314 216.17857843 -33.16015625 217.67578125 C-33.08099976 218.66831909 -33.08099976 218.66831909 -33.00024414 219.6809082 C-34.27675608 227.1545322 -42.08257558 232.98971346 -47.22875977 238.15429688 C-48.81717489 239.7547102 -50.38596732 241.37287103 -51.95507812 242.9921875 C-52.96759866 244.01416281 -53.98123269 245.03503638 -54.99609375 246.0546875 C-56.36399048 247.44276611 -56.36399048 247.44276611 -57.75952148 248.85888672 C-60.375 250.875 -60.375 250.875 -63.21118164 251.17626953 C-63.9252417 251.07685059 -64.63930176 250.97743164 -65.375 250.875 C-67.40339649 246.33667694 -69.42295121 241.79448286 -71.4375 237.25 C-71.75625092 236.53101532 -72.07500183 235.81203064 -72.40341187 235.07125854 C-77.16317125 224.31740327 -81.8223805 213.52256508 -86.421875 202.69921875 C-86.68042707 202.09097008 -86.93897915 201.48272141 -87.20536613 200.85604095 C-89.55766846 195.32104893 -91.90750581 189.78502028 -94.24807739 184.24505615 C-95.72171497 180.75745993 -97.19865707 177.27127682 -98.67578125 173.78515625 C-99.3436264 172.19824226 -99.3436264 172.19824226 -100.02496338 170.57926941 C-100.43736267 169.6070192 -100.84976196 168.63476898 -101.2746582 167.63305664 C-101.63356644 166.78296524 -101.99247467 165.93287384 -102.36225891 165.05702209 C-103.4055895 162.66351831 -103.4055895 162.66351831 -105.375 159.875 C-105.82488281 160.34808594 -106.27476562 160.82117188 -106.73828125 161.30859375 C-111.3767342 166.07718366 -116.26797046 170.29601635 -121.453125 174.45703125 C-124.527275 177.00101367 -127.45628772 179.65661923 -130.375 182.375 C-135.85217763 187.45907457 -141.55039558 192.1958512 -147.375 196.875 C-148.63892169 197.90644917 -149.90188208 198.93907702 -151.1640625 199.97265625 C-165.20680538 211.46279032 -179.61973964 222.31737828 -194.375 232.875 C-193.83109042 237.34245148 -193.25170064 241.80173428 -192.62109375 246.2578125 C-192.48896484 247.19753906 -192.35683594 248.13726562 -192.22070312 249.10546875 C-191.94741098 251.04335849 -191.67134558 252.98085906 -191.39257812 254.91796875 C-191.02267129 257.56744922 -190.69490483 260.21911504 -190.375 262.875 C-190.21773438 263.9475 -190.06046875 265.02 -189.8984375 266.125 C-190.6554352 270.49324902 -193.43521108 272.7677741 -196.5625 275.75 C-197.4297168 276.63945313 -197.4297168 276.63945313 -198.31445312 277.546875 C-200.80214702 279.98678269 -202.63829563 281.65026132 -206 282.67578125 C-209.7602187 281.40794435 -211.21964969 278.42702345 -213.1875 275.1875 C-213.61401855 274.5164624 -214.04053711 273.8454248 -214.47998047 273.15405273 C-215.79685455 271.07198128 -217.08756323 268.97537376 -218.375 266.875 C-219.1828189 265.57764221 -219.99138019 264.2807463 -220.80078125 262.984375 C-222.68059769 259.96095947 -224.53498725 256.92284234 -226.375 253.875 C-227.35339844 254.308125 -228.33179688 254.74125 -229.33984375 255.1875 C-242.67623923 260.91889977 -242.67623923 260.91889977 -250.375 259.875 C-252.375 257.875 -252.375 257.875 -252.8125 254 C-252.71057498 247.72141879 -249.9447331 242.48628605 -247.375 236.875 C-247.045 235.885 -246.715 234.895 -246.375 233.875 C-246.86790527 233.57843506 -247.36081055 233.28187012 -247.86865234 232.97631836 C-253.39335365 229.64538118 -258.89239103 226.27474336 -264.375 222.875 C-264.98021484 222.50294434 -265.58542969 222.13088867 -266.20898438 221.74755859 C-267.65193346 220.85170552 -269.07709314 219.92735693 -270.5 219 C-271.26570313 218.50757813 -272.03140625 218.01515625 -272.8203125 217.5078125 C-274.375 215.875 -274.375 215.875 -274.97265625 213.5703125 C-274.08728625 209.57746741 -271.54553128 207.35906041 -268.6875 204.625 C-267.89182617 203.81289063 -267.89182617 203.81289063 -267.08007812 202.984375 C-263.89460617 199.85753136 -261.9491476 198.36495468 -257.375 197.875 C-255.22049211 198.06486085 -253.07296154 198.34434491 -250.9375 198.6875 C-249.10058594 198.96980469 -249.10058594 198.96980469 -247.2265625 199.2578125 C-244.65885417 199.66927083 -242.09114583 200.08072917 -239.5234375 200.4921875 C-237.68652344 200.77449219 -237.68652344 200.77449219 -235.8125 201.0625 C-234.69746094 201.24167969 -233.58242187 201.42085937 -232.43359375 201.60546875 C-229.40952035 201.87195798 -227.2590637 201.79854143 -224.375 200.875 C-222.62044643 198.83001691 -221.20373819 196.92870458 -219.75 194.6875 C-218.8780132 193.40549739 -218.00291174 192.12560877 -217.125 190.84765625 C-216.67511719 190.18910645 -216.22523438 189.53055664 -215.76171875 188.85205078 C-213.54013096 185.68472368 -211.15598093 182.65339046 -208.75 179.625 C-208.28658203 179.04041016 -207.82316406 178.45582031 -207.34570312 177.85351562 C-206.02492175 176.19176658 -204.70028903 174.53315471 -203.375 172.875 C-202.30765625 171.53115234 -202.30765625 171.53115234 -201.21875 170.16015625 C-199.27954651 167.724609 -197.33035343 165.29759652 -195.375 162.875 C-194.69179687 162.02808594 -194.00859375 161.18117188 -193.3046875 160.30859375 C-187.63510177 153.32829734 -181.80219732 146.49779203 -175.93212891 139.68652344 C-174.38048064 137.88137604 -172.83566415 136.07061441 -171.29296875 134.2578125 C-165.11620722 127.00605974 -158.83414921 119.87717502 -152.375 112.875 C-165.03732303 106.75918411 -177.97143155 101.28773885 -190.90576172 95.77929688 C-198.90836556 92.37049914 -206.90664161 88.9515803 -214.90365601 85.5296936 C-217.71286049 84.32838212 -220.52303244 83.12935463 -223.33325195 81.93041992 C-225.08419452 81.18158864 -226.83509174 80.43265135 -228.5859375 79.68359375 C-229.38483902 79.34342224 -230.18374054 79.00325073 -231.0068512 78.652771 C-235.2024967 76.85480197 -239.31409616 74.96613488 -243.375 72.875 C-242.98408997 67.42380981 -241.26953617 65.15506769 -237.421875 61.36328125 C-236.92463928 60.86837692 -236.42740356 60.3734726 -235.9151001 59.86357117 C-234.86509982 58.82327865 -233.80910689 57.78900392 -232.74755859 56.76049805 C-231.13182094 55.1941126 -229.53546995 53.60989188 -227.94140625 52.02148438 C-217.00518376 41.2354167 -217.00518376 41.2354167 -211.98046875 40.546875 C-210.78357422 40.58554688 -210.78357422 40.58554688 -209.5625 40.625 C-208.27279297 40.66367188 -208.27279297 40.66367188 -206.95703125 40.703125 C-203.39651022 40.94013396 -199.90497675 41.35204048 -196.375 41.875 C-196.21837891 40.98554688 -196.21837891 40.98554688 -196.05859375 40.078125 C-194.81953419 36.08481304 -191.94682223 33.87728733 -188.375 31.875 C-183.42907247 30.81459314 -178.94802314 31.2452545 -174.4375 33.5625 C-171.36543199 35.88222483 -169.83959179 37.34274922 -168.375 40.875 C-168.1875 43.6875 -168.1875 43.6875 -168.375 45.875 C-167.055 45.875 -165.735 45.875 -164.375 45.875 C-164.148125 45.1325 -163.92125 44.39 -163.6875 43.625 C-161.85407322 39.78353437 -159.14523176 37.76011588 -155.375 35.875 C-150.4497885 35.33464406 -146.50558282 35.33064531 -142 37.5 C-139.13227511 40.09460823 -137.216953 42.47447139 -135.375 45.875 C-135.375 47.195 -135.375 48.515 -135.375 49.875 C-130.66167882 50.44997243 -125.94773641 51.01944425 -121.2331543 51.58398438 C-119.63173807 51.77650965 -118.0304969 51.97049715 -116.42944336 52.16601562 C-114.11877993 52.44792663 -111.80752341 52.72445064 -109.49609375 53 C-108.4347245 53.13124268 -108.4347245 53.13124268 -107.35191345 53.26513672 C-99.59915241 54.58338114 -99.59915241 54.58338114 -92.44140625 52.58984375 C-91.94511719 52.00332031 -91.44882812 51.41679687 -90.9375 50.8125 C-88.64057812 48.19456911 -86.27975126 45.81900905 -83.64453125 43.54296875 C-82.94287842 42.93686768 -82.24122559 42.3307666 -81.51831055 41.70629883 C-23.52751582 -7.84250527 -23.52751582 -7.84250527 0 0 Z " fill="#D5E5FD" transform="translate(388.375,156.125)"/>
<path d="M0 0 C4.69455441 2.82477471 7.43044283 6.86441424 10.4375 11.375 C11.09395884 14.65008038 11.63636604 17.91464358 12.1171875 21.21875 C13.08787114 27.08697381 14.80234401 32.07953208 19.4375 36.1171875 C20.0975 36.49101563 20.7575 36.86484375 21.4375 37.25 C22.4275 37.83394531 22.4275 37.83394531 23.4375 38.4296875 C27.07141463 40.14727996 30.35959992 40.50059273 34.35449219 40.5168457 C35.8168631 40.52739738 35.8168631 40.52739738 37.30877686 40.53816223 C38.35672424 40.54232651 39.40467163 40.54649078 40.484375 40.55078125 C42.71355108 40.57398244 44.94271777 40.5980999 47.171875 40.62304688 C50.67844909 40.65812243 54.18467826 40.68748919 57.69140625 40.70092773 C61.08115197 40.71645292 64.46989581 40.75669426 67.859375 40.80078125 C68.89922546 40.79887283 69.93907593 40.79696442 71.01043701 40.79499817 C78.50676997 40.92018169 83.97941331 42.34465574 89.6796875 47.33984375 C90.21851563 47.99082031 90.75734375 48.64179687 91.3125 49.3125 C91.86679687 49.96089844 92.42109375 50.60929687 92.9921875 51.27734375 C96.91073587 56.96453422 97.31201707 62.65834825 96.4375 69.375 C93.05701397 79.37137285 86.95342025 85.87610434 78 91.11328125 C72.85916254 93.64451677 68.46315748 94.58062475 62.75 94.75 C47.96875503 95.66896044 38.92938344 102.48330833 28.9296875 112.79296875 C27.51575464 114.22734135 26.10168778 115.66158186 24.6875 117.09570312 C22.50668398 119.31967707 20.32847623 121.54612454 18.15332031 123.77563477 C-5.19563145 147.66393987 -5.19563145 147.66393987 -18.75 153.8125 C-19.41725098 154.12977051 -20.08450195 154.44704102 -20.77197266 154.77392578 C-26.22815592 157.32539728 -31.75409713 159.74993438 -37.5625 161.375 C-38.18157227 161.55087646 -38.80064453 161.72675293 -39.43847656 161.90795898 C-45.13568582 163.29404981 -50.66842179 163.55161436 -56.5 163.61328125 C-57.31091095 163.62218384 -58.1218219 163.63108643 -58.95730591 163.64025879 C-62.34569189 163.66983112 -65.73355029 163.68979297 -69.12207031 163.68041992 C-83.15186096 163.43795252 -83.15186096 163.43795252 -95.5625 169.375 C-100.96257263 175.12920178 -101.99096273 180.57863199 -101.8984375 188.23046875 C-101.28399878 193.98190093 -99.06520882 198.34459226 -94.5546875 202.00390625 C-89.03681266 205.57729014 -84.5415152 206.50620579 -78.0078125 206.515625 C-76.49087038 206.5339515 -74.97394287 206.55352167 -73.45703125 206.57421875 C-71.07152592 206.60318455 -68.68696218 206.62500011 -66.30126953 206.62548828 C-63.99427263 206.62882968 -61.68943352 206.66340922 -59.3828125 206.703125 C-58.67432159 206.6960553 -57.96583069 206.6889856 -57.23587036 206.68170166 C-53.3583689 206.77661145 -51.68030677 207.2809652 -48.61279297 209.72949219 C-46.5625 212.375 -46.5625 212.375 -45.9375 215.375 C-46.79626846 219.49708862 -48.24865074 220.8013872 -51.5625 223.375 C-54.50494822 224.00336979 -57.31855232 223.89422672 -60.3125 223.75 C-61.07304687 223.73582031 -61.83359375 223.72164062 -62.6171875 223.70703125 C-96.13914721 222.85477804 -122.59961697 205.8264248 -145.40625 182.48828125 C-149.9415632 177.55719779 -152.8038938 172.45013276 -155.5625 166.375 C-156.09423828 165.45460937 -156.09423828 165.45460937 -156.63671875 164.515625 C-161.32038339 153.68588567 -159.7020889 136.13434311 -155.48828125 125.49560547 C-149.81892898 112.50932017 -142.94911158 99.80817661 -134.5625 88.375 C-133.86898437 87.41078125 -133.17546875 86.4465625 -132.4609375 85.453125 C-126.84403157 77.79190349 -120.806386 70.52704723 -114.5625 63.375 C-114.12228516 62.8701709 -113.68207031 62.3653418 -113.22851562 61.84521484 C-108.59569056 56.56317102 -103.90241529 51.54070652 -98.515625 47.0234375 C-97.22719115 45.93599933 -95.9653559 44.81613436 -94.734375 43.6640625 C-76.91095318 27.03354687 -55.55205355 14.62893424 -33.5625 4.375 C-32.92860352 4.07158691 -32.29470703 3.76817383 -31.64160156 3.45556641 C-21.63464205 -1.272352 -10.71604203 -4.73592869 0 0 Z " fill="#E3F2FE" transform="translate(205.5625,33.625)"/>
<path d="M0 0 C1.3119635 -0.00960754 2.623927 -0.01921509 3.97564697 -0.02911377 C5.40140609 -0.03396296 6.82716725 -0.03824149 8.25292969 -0.04199219 C9.33797413 -0.04623325 9.33797413 -0.04623325 10.44493866 -0.05056 C14.27433127 -0.06551974 18.10368654 -0.07476899 21.93310547 -0.07910156 C25.8680683 -0.08457594 29.80268332 -0.10859105 33.73753738 -0.13707352 C36.78150395 -0.15579543 39.8253884 -0.16091058 42.86940765 -0.16243744 C44.31893562 -0.16544389 45.76846285 -0.17340372 47.21793365 -0.18662262 C59.94602172 -0.29439961 68.95702726 1.20611702 78.42480469 10.16113281 C83.42480469 15.95367361 83.42480469 15.95367361 83.42480469 19.16113281 C84.08480469 19.16113281 84.74480469 19.16113281 85.42480469 19.16113281 C86.05768792 22.15964756 86.68108585 25.15968824 87.29980469 28.16113281 C87.47382813 28.98097656 87.64785156 29.80082031 87.82714844 30.64550781 C90.99244032 46.12026812 91.83244435 61.22318195 91.79980469 76.97363281 C91.79926086 77.96325012 91.79871704 78.95286743 91.79815674 79.97247314 C91.75772213 96.01530898 90.88205605 111.44037416 87.42480469 127.16113281 C87.21049805 128.14581543 86.99619141 129.13049805 86.77539062 130.14501953 C80.98178194 155.88736381 71.26197327 180.5701775 57.61230469 203.16113281 C57.16846436 203.89686523 56.72462402 204.63259766 56.26733398 205.390625 C52.14600391 211.99652171 48.07508764 216.73854321 40.42480469 219.16113281 C34.4935551 220.13364401 30.35319592 219.11789733 25.24902344 216.03613281 C18.52372545 209.12362096 18.85962641 201.14078296 18.90838432 192.07107735 C18.9211212 189.6858214 18.90962813 187.30170475 18.89234924 184.91648865 C18.86574576 180.70971853 18.86004965 176.50323185 18.8614502 172.29638672 C18.86368478 165.56836413 18.84931219 158.84069282 18.80586433 152.11280632 C18.79610459 149.77688057 18.80470169 147.44151935 18.81455994 145.10560608 C18.79933336 134.98415071 18.22275733 126.32148538 10.95996094 118.59472656 C5.02808247 113.05528789 -1.53615413 112.1606878 -9.32519531 111.78613281 C-23.1114035 110.89622943 -33.34718536 104.8406241 -42.88769531 94.97363281 C-52.56125789 83.47262104 -55.98472361 68.19255057 -55.47753906 53.44238281 C-54.53561945 44.76337987 -48.63070853 38.6428549 -43.21240234 32.19042969 C-40.85058104 29.26298282 -38.95214536 26.19746249 -37.01269531 22.97363281 C-36.39136719 21.94753906 -35.77003906 20.92144531 -35.12988281 19.86425781 C-33.87245795 17.67798141 -32.74840901 15.48437751 -31.63769531 13.22363281 C-26.51421579 5.61604201 -17.94806725 2.66305104 -9.35235596 0.63726807 C-6.19193711 0.09542443 -3.20711165 0.01900884 0 0 Z " fill="#AEBDF5" transform="translate(420.5751953125,181.8388671875)"/>
<path d="M0 0 C30.84604482 14.57920963 58.99946413 37.10588567 80 64 C80.77730469 64.96035156 81.55460937 65.92070313 82.35546875 66.91015625 C102.16643614 91.82347137 119.10101387 122.71666635 126 154 C125.6171875 156.42578125 125.6171875 156.42578125 125 158 C124.59910156 157.34773437 124.19820313 156.69546875 123.78515625 156.0234375 C118.03860354 147.18860136 112.26642562 142.57125688 102 140 C98.66749877 139.69628853 98.66749877 139.69628853 95.22949219 139.7253418 C93.92413513 139.71580978 92.61877808 139.70627777 91.27386475 139.69645691 C89.86486789 139.69671845 88.45587102 139.69765607 87.046875 139.69921875 C85.58107381 139.69532445 84.11527374 139.69098829 82.6494751 139.68623352 C79.58317401 139.67879429 76.51698809 139.67904491 73.45068359 139.68432617 C69.54957227 139.69010439 65.64893829 139.6732189 61.74790573 139.6499815 C58.72100129 139.63513946 55.69420887 139.63438679 52.66727448 139.63749123 C51.23057361 139.63698281 49.79386567 139.63183674 48.35720062 139.62167931 C35.09823509 139.53945998 24.10498522 141.59667652 13 149 C13.49144908 145.85472592 14.25262675 143.43411607 15.5625 140.5 C18.01051195 134.25458416 18.11354563 126.3406369 16 120 C16.66 120 17.32 120 18 120 C19.33333333 121.66666667 20.66666667 123.33333333 22 125 C22.66 125 23.32 125 24 125 C24.33 121.37 24.66 117.74 25 114 C23.68 113.67 22.36 113.34 21 113 C18.859375 111.58984375 18.859375 111.58984375 16.75 109.9375 C16.04359375 109.38964844 15.3371875 108.84179688 14.609375 108.27734375 C14.07828125 107.85582031 13.5471875 107.43429688 13 107 C13.53311791 100.36564376 16.98947655 96.93243387 21.1640625 92 C26.42786126 83.25959033 21.16813101 68.53677883 19.15356445 59.02172852 C18.68627389 56.806688 18.23779845 54.58839813 17.79101562 52.36914062 C16.13598821 44.31356692 14.05736042 36.65091203 11 29 C10.48589077 27.59426453 9.97641444 26.18682174 9.47265625 24.77734375 C6.97010236 17.93304095 4.39163945 11.32875006 0.8828125 4.91796875 C0 3 0 3 0 0 Z " fill="#2667ED" transform="translate(379,43)"/>
<path d="M0 0 C3.63 0.33 7.26 0.66 11 1 C17.2808778 22.16789456 21.21495382 43.48724339 24.375 65.3125 C24.51436981 66.26334473 24.65373962 67.21418945 24.79733276 68.19384766 C25.19364768 70.91587055 25.57930361 73.63916543 25.9609375 76.36328125 C26.14172096 77.60390068 26.14172096 77.60390068 26.32615662 78.86958313 C26.79599933 82.31269852 27.11399543 84.65801372 26 88 C23.90881406 89.77014472 21.8159855 91.42541855 19.625 93.0625 C13.98737988 97.376079 8.69099635 101.87000043 3.484375 106.69921875 C0.52907125 109.43612742 -2.49648614 112.08368696 -5.5390625 114.72265625 C-6.38046727 115.45832299 -7.20969387 116.20969387 -8 117 C-17.29372746 116.94271971 -26.60409531 115.63448315 -35.8125 114.5 C-36.88056885 114.36948242 -37.9486377 114.23896484 -39.04907227 114.10449219 C-40.04994873 113.97719727 -41.0508252 113.84990234 -42.08203125 113.71875 C-42.98155518 113.60466797 -43.8810791 113.49058594 -44.80786133 113.37304688 C-47 113 -47 113 -49 112 C-49.67578125 110.29296875 -49.67578125 110.29296875 -50.3125 108.1875 C-51.9684198 103.47319771 -54.54075145 101.22962427 -59 99 C-63.98066973 98.45355962 -67.8958307 98.45795325 -72.4375 100.6875 C-75.10256804 102.86139733 -75.10256804 102.86139733 -76.625 105.75 C-77.07875 106.4925 -77.5325 107.235 -78 108 C-79.32 108 -80.64 108 -82 108 C-82.226875 106.948125 -82.45375 105.89625 -82.6875 104.8125 C-83.55629639 101.63536869 -84.02729445 100.97530502 -86.625 98.625 C-89 96 -89 96 -89.4375 92.1875 C-89.30380919 90.45735218 -89.15605288 88.72827435 -89 87 C-89.00829834 85.85909912 -89.01659668 84.71819824 -89.02514648 83.54272461 C-88.54197408 71.34089852 -83.41284915 65.44274379 -74.69091797 57.30517578 C-72.6276447 55.37747092 -70.62303089 53.40129599 -68.62109375 51.41015625 C-58.58508887 41.60565888 -49.00493576 34.20736284 -34.5 33.75 C-24.41561057 33.06791331 -14.80247663 29.7846524 -8 22 C-2.77591236 14.90418043 -0.78071503 8.71798449 0 0 Z " fill="#0F96F8" transform="translate(302,94)"/>
<path d="M0 0 C3.80618426 1.34461463 6.40170538 3.24730676 8.9375 6.4375 C10.07383902 9.17808234 10.2516764 11.06377537 10 14 C11.32 14 12.64 14 14 14 C14.226875 13.2575 14.45375 12.515 14.6875 11.75 C16.52092678 7.90853437 19.22976824 5.88511588 23 4 C27.9252115 3.45964406 31.86941718 3.45564531 36.375 5.625 C39.24272489 8.21960823 41.158047 10.59947139 43 14 C43 15.32 43 16.64 43 18 C62.8 20.475 62.8 20.475 83 23 C80.17394156 25.82605844 77.34788334 28.65167478 74.51416016 31.4699707 C70.97640058 34.98982443 67.44178155 38.51281436 63.90820312 42.03686523 C62.39054928 43.54948836 60.87199938 45.06121301 59.35253906 46.57202148 C57.14146481 48.77086528 54.93372562 50.97301237 52.7265625 53.17578125 C52.05654205 53.84064041 51.38652161 54.50549957 50.69619751 55.19050598 C45.27149558 60.6145717 40.21359698 66.30083336 35.33984375 72.22265625 C34.15068359 73.62837891 34.15068359 73.62837891 32.9375 75.0625 C32.14214844 76.02285156 31.34679687 76.98320312 30.52734375 77.97265625 C28 80 28 80 25.23925781 79.79125977 C21.82092374 78.95625669 18.8564832 77.80345523 15.64453125 76.3671875 C15.03762955 76.09850861 14.43072784 75.82982971 13.80543518 75.55300903 C12.4923259 74.97091684 11.18057231 74.38575862 9.87005615 73.79785156 C6.31405877 72.20292171 2.74794435 70.63083693 -0.81640625 69.0546875 C-1.56110168 68.72458679 -2.30579712 68.39448608 -3.07305908 68.05438232 C-11.55940897 64.29739389 -20.09065196 60.64630831 -28.625 57 C-30.06536708 56.38399572 -31.50571583 55.76794857 -32.94604492 55.15185547 C-34.33121224 54.55955813 -35.71638466 53.96727274 -37.1015625 53.375 C-37.76704605 53.09036896 -38.4325296 52.80573792 -39.11817932 52.51248169 C-42.38401247 51.11616455 -45.65113316 49.7230238 -48.92089844 48.3359375 C-49.54918549 48.06861816 -50.17747253 47.80129883 -50.82479858 47.52587891 C-52.52509068 46.8024787 -54.22613921 46.08085712 -55.92724609 45.359375 C-59.00368568 43.99836947 -62.0038444 42.52870816 -65 41 C-64.60908997 35.54880981 -62.89453617 33.28006769 -59.046875 29.48828125 C-58.30102142 28.74592476 -58.30102142 28.74592476 -57.5401001 27.98857117 C-56.49009982 26.94827865 -55.43410689 25.91400392 -54.37255859 24.88549805 C-52.75682094 23.3191126 -51.16046995 21.73489188 -49.56640625 20.14648438 C-38.63018376 9.3604167 -38.63018376 9.3604167 -33.60546875 8.671875 C-32.80753906 8.69765625 -32.00960937 8.7234375 -31.1875 8.75 C-30.32769531 8.77578125 -29.46789062 8.8015625 -28.58203125 8.828125 C-25.02151022 9.06513396 -21.52997675 9.47704048 -18 10 C-17.89558594 9.40703125 -17.79117188 8.8140625 -17.68359375 8.203125 C-15.20860709 0.22659655 -7.33521872 -1.37756114 0 0 Z " fill="#FBC63F" transform="translate(210,188)"/>
<path d="M0 0 C0.66 0.33 1.32 0.66 2 1 C2.46541084 3.82095569 2.80482811 6.56845471 3.0703125 9.41015625 C3.15626678 10.25219101 3.24222107 11.09422577 3.33078003 11.96177673 C3.60429465 14.66122057 3.86477297 17.36174597 4.125 20.0625 C4.30773896 21.88875761 4.49132164 23.71493101 4.67578125 25.54101562 C5.12699692 30.02642382 5.56652239 34.51284426 6 39 C6.94705811 39.13736572 7.89411621 39.27473145 8.86987305 39.41625977 C12.16417972 40.03061803 13.39736306 40.70772345 15.8125 42.9375 C16.39644531 43.46214844 16.98039062 43.98679687 17.58203125 44.52734375 C20.97202912 48.04808534 20.44585163 52.29778804 20.41796875 56.9375 C19.86890041 60.96058015 18.46773709 62.92363651 15.703125 65.79296875 C13.81350996 67.1321684 12.26451834 67.59140212 10 68 C10 69.32 10 70.64 10 72 C11.5778125 72.0928125 11.5778125 72.0928125 13.1875 72.1875 C18.61495249 73.3441702 20.55303833 76.10398126 23.8125 80.375 C25.4242589 83.93783546 25.52717736 86.11206694 25 90 C23.17645742 94.07482972 21.48308164 97.32567487 17.328125 99.21484375 C16.55984375 99.80394531 15.7915625 100.39304687 15 101 C14.72974988 103.95453216 14.70686065 106.39354824 14.9375 109.3125 C15.04970238 110.80724204 15.14254686 112.30357843 15.21484375 113.80078125 C15.26761475 114.46247314 15.32038574 115.12416504 15.37475586 115.8059082 C14.09824392 123.2795322 6.29242442 129.11471346 1.14624023 134.27929688 C-0.44217489 135.8797102 -2.01096732 137.49787103 -3.58007812 139.1171875 C-4.59259866 140.13916281 -5.60623269 141.16003638 -6.62109375 142.1796875 C-7.5330249 143.10507324 -8.44495605 144.03045898 -9.38452148 144.98388672 C-12 147 -12 147 -14.83618164 147.30126953 C-15.5502417 147.20185059 -16.26430176 147.10243164 -17 147 C-25.78426204 127.34614085 -34.35832095 107.60388312 -42.80563354 87.80303955 C-43.85227001 85.3500941 -44.89969705 82.89750622 -45.94851685 80.44549561 C-47.43508916 76.96764924 -48.91745057 73.48804039 -50.3984375 70.0078125 C-50.84882889 68.95503113 -51.29922028 67.90224976 -51.76325989 66.81756592 C-52.17573471 65.84539124 -52.58820953 64.87321655 -53.01318359 63.87158203 C-53.37431244 63.02371124 -53.73544128 62.17584045 -54.10751343 61.30227661 C-55.67916363 57.24801562 -55.67916363 57.24801562 -56 55 C-54.19140625 52.66796875 -54.19140625 52.66796875 -51.5625 50.1875 C-50.71816406 49.37667969 -49.87382812 48.56585938 -49.00390625 47.73046875 C-46.83838027 45.73256981 -44.61643284 43.8102019 -42.38061523 41.89160156 C-37.68938363 37.79034595 -33.29650797 33.42285012 -28.90625 29.00390625 C-28.07411987 28.17036118 -27.24198975 27.3368161 -26.38464355 26.47801208 C-23.75405065 23.84186738 -21.12697559 21.20224895 -18.5 18.5625 C-16.70596145 16.76344021 -14.91169285 14.9646098 -13.1171875 13.16601562 C-8.74212875 8.77999188 -4.36994488 4.39111858 0 0 Z " fill="#FCC73E" transform="translate(340,260)"/>
<path d="M0 0 C-0.50187698 7.1725778 -1.75622736 13.87639775 -3.625 20.8125 C-3.89223877 21.81095947 -4.15947754 22.80941895 -4.43481445 23.83813477 C-8.48473706 38.69880411 -13.29706344 52.94228146 -19.625 67 C-20.08028076 68.02150146 -20.53556152 69.04300293 -21.00463867 70.09545898 C-25.29472686 79.34671494 -29.86937718 83.40119095 -39.125 87.375 C-40.00808838 87.76147705 -40.89117676 88.1479541 -41.80102539 88.54614258 C-86.84045493 108 -86.84045493 108 -108 108 C-106.97970813 94.58922352 -102.83122897 88.07170611 -92.9375 79.25 C-91.25899704 77.69437321 -89.58995269 76.12925669 -87.92396545 74.5602417 C-86.42538409 73.15815722 -84.90457065 71.77994518 -83.38256836 70.40332031 C-81.24457089 68.24670108 -79.97626742 66.83929911 -79 64 C-79.02644516 61.95151759 -79.06043677 59.90182602 -79.18041992 57.85668945 C-79.74559357 48.03980076 -79.74559357 48.03980076 -77.5546875 44.984375 C-75.6875 43.8125 -75.6875 43.8125 -73.7578125 42.88671875 C-70.74815299 41.36851273 -70.04487386 39.0731584 -69 36 C-68.36526368 31.01278609 -69.08893143 27.67938504 -71.7265625 23.5078125 C-74.59432539 20.11224049 -78.75220748 18.81688318 -83 18 C-83 16.68 -83 15.36 -83 14 C-81.33505493 13.77449463 -81.33505493 13.77449463 -79.63647461 13.54443359 C-60.79827818 10.98031946 -41.97359035 8.4141489 -23.3125 4.75 C-22.05751709 4.50427246 -20.80253418 4.25854492 -19.50952148 4.00537109 C-14.914381 3.08079939 -10.35134261 2.16179562 -5.85546875 0.828125 C-3 0 -3 0 0 0 Z " fill="#3253EF" transform="translate(433,314)"/>
<path d="M0 0 C4.73296825 4.26843618 7.89916732 9.17078026 11.25 14.5625 C12.06210937 15.83770508 12.06210937 15.83770508 12.890625 17.13867188 C16.88034719 23.49729161 16.88034719 23.49729161 17.52612305 26.21044922 C17.68250244 26.80100098 17.83888184 27.39155273 18 28 C20.21640406 29.0913534 20.21640406 29.0913534 23 30 C33.47571486 35.68110877 42.85819018 42.38479851 52 50 C52.895979 50.7415332 52.895979 50.7415332 53.81005859 51.49804688 C69.79090353 64.77483545 83.30782038 79.1188805 94 97 C92.82743652 96.67620361 91.65487305 96.35240723 90.44677734 96.01879883 C83.64099925 94.51671808 76.78758216 94.69146772 69.8515625 94.69921875 C68.3886198 94.69532211 66.92567821 94.69098548 65.46273804 94.68623352 C62.40838948 94.67880862 59.3541566 94.6790352 56.29980469 94.68432617 C52.41444474 94.69011446 48.52956249 94.6731874 44.64428139 94.6499815 C41.62595928 94.63514315 38.60774956 94.63438609 35.58939743 94.63749123 C34.1582787 94.63698303 32.72715284 94.63184114 31.2960701 94.62167931 C18.06238125 94.53922615 7.0830077 96.6113282 -4 104 C-3.50855092 100.85472592 -2.74737325 98.43411607 -1.4375 95.5 C1.01051195 89.25458416 1.11354563 81.3406369 -1 75 C-0.34 75 0.32 75 1 75 C2.33333333 76.66666667 3.66666667 78.33333333 5 80 C5.66 80 6.32 80 7 80 C7.33 76.37 7.66 72.74 8 69 C6.68 68.67 5.36 68.34 4 68 C1.859375 66.58984375 1.859375 66.58984375 -0.25 64.9375 C-0.95640625 64.38964844 -1.6628125 63.84179688 -2.390625 63.27734375 C-2.92171875 62.85582031 -3.4528125 62.43429688 -4 62 C-3.56959086 56.64379734 -1.74957932 54.09546469 1.625 50 C5.83461647 44.30018906 6.91922882 40.41694399 5.87109375 33.234375 C5.58841946 31.82135644 5.29694045 30.41008957 5 29 C4.80937988 28.04931641 4.61875977 27.09863281 4.42236328 26.11914062 C3.55826221 21.82578326 2.68254462 17.53715676 1.72998047 13.26245117 C1.50842285 12.26705322 1.28686523 11.27165527 1.05859375 10.24609375 C0.85548584 9.35591553 0.65237793 8.4657373 0.44311523 7.54858398 C-0.00368388 4.9788121 -0.07927514 2.60262331 0 0 Z " fill="#2187F2" transform="translate(396,88)"/>
<path d="M0 0 C25.30769097 4.52490083 54.19644467 10.54080015 76 25 C77.51623381 27.21530734 77.54516367 28.49676859 77.69140625 31.16015625 C76.51583502 35.98863241 73.51152246 39.77366253 70.52172852 43.68286133 C67.6881848 47.33582132 67.6881848 47.33582132 66.9765625 51.78125 C68.13542631 54.29359597 69.07087168 55.25280269 71.375 56.75 C71.98085938 57.15734375 72.58671875 57.5646875 73.2109375 57.984375 C75.1330632 59.15176777 75.1330632 59.15176777 78 60 C78 63.63 78 67.26 78 71 C74 71 74 71 72.25 69.625 C71 68 71 68 71 66 C70.1028125 65.5978125 70.1028125 65.5978125 69.1875 65.1875 C67 64 67 64 65.5625 62.5 C62.35838596 59.42405052 58.38572796 58.67574326 54.0625 58.5625 C40.63738271 58.88556432 26.22210935 66.75779658 15.6640625 74.7734375 C14 76 14 76 12 76 C11.86948242 75.0298999 11.73896484 74.0597998 11.60449219 73.06030273 C7.62536241 39.88076534 7.62536241 39.88076534 0.515625 7.3046875 C-0.0439785 4.80342945 -0.03495275 2.55525821 0 0 Z " fill="#1587F7" transform="translate(326,97)"/>
<path d="M0 0 C0.33 0 0.66 0 1 0 C1.03738281 1.23234375 1.07476562 2.4646875 1.11328125 3.734375 C1.70662655 19.92516181 3.6488057 35.40929363 15.25 47.875 C25.76910937 57.3563497 35.77042738 60.92679119 49.625 61.703125 C57.28853073 62.37723187 62.45690585 64.74116708 68 70 C65.73474879 72.26525121 64.59308266 72.5503009 61.5390625 73.33203125 C60.60642578 73.57083008 59.67378906 73.80962891 58.71289062 74.05566406 C57.69388672 74.30541992 56.67488281 74.55517578 55.625 74.8125 C54.56732422 75.07385742 53.50964844 75.33521484 52.41992188 75.60449219 C35.41402225 79.69483248 18.10656938 82.78608002 0.7109375 84.640625 C-1.96178777 84.84514646 -1.96178777 84.84514646 -4 86 C-4.08636719 85.41992188 -4.17273438 84.83984375 -4.26171875 84.2421875 C-5.27977655 78.58215975 -6.61790376 75.00104439 -11 71 C-12.3831665 70.56195303 -13.78069982 70.16739151 -15.1875 69.8125 C-17.15942383 69.16625977 -17.15942383 69.16625977 -19 68 C-19.73291016 65.92871094 -19.73291016 65.92871094 -20.1015625 63.296875 C-20.24843506 62.3066333 -20.39530762 61.3163916 -20.54663086 60.29614258 C-20.69624268 59.20841553 -20.84585449 58.12068848 -21 57 C-21.19021729 55.85877686 -21.38043457 54.71755371 -21.57641602 53.54174805 C-22.18212021 49.84727744 -22.69033339 46.14801373 -23.1875 42.4375 C-23.39697266 41.18775391 -23.60644531 39.93800781 -23.82226562 38.65039062 C-24.96821207 29.60169317 -24.96821207 29.60169317 -22.265625 25.13085938 C-19.96679867 22.57811547 -17.55608908 20.29250602 -15 18 C-13.84418387 16.7209381 -12.70847674 15.4231718 -11.6015625 14.1015625 C-10.85326172 13.22951172 -10.85326172 13.22951172 -10.08984375 12.33984375 C-9.60644531 11.77394531 -9.12304688 11.20804688 -8.625 10.625 C-8.11839844 10.03589844 -7.61179687 9.44679687 -7.08984375 8.83984375 C-5.05530947 6.46355043 -3.07443937 4.10044439 -1.2109375 1.5859375 C-0.61152344 0.80089844 -0.61152344 0.80089844 0 0 Z " fill="#3055E4" transform="translate(365,231)"/>
<path d="M0 0 C22.77314016 3.67581298 43.90440361 15.87989475 61 31 C61.96292969 31.84175781 62.92585938 32.68351562 63.91796875 33.55078125 C92.21692028 58.65076083 92.21692028 58.65076083 97 73 C91.46432593 71.45727116 86.08762001 69.68245496 80.72021484 67.64013672 C66.92322712 62.4034287 52.7062475 57.43850054 38.1328125 54.91796875 C37.21363037 54.7583667 36.29444824 54.59876465 35.34741211 54.43432617 C33.62119254 54.15245884 31.88990584 53.89952235 30.15454102 53.6809082 C27.91401678 53.32669646 26.05534664 52.96057838 24 52 C22.4531784 49.42849068 21.75938983 47.79913449 21 45 C20.51706565 43.60659382 20.02582846 42.21604408 19.52734375 40.828125 C19.27251221 40.09029785 19.01768066 39.3524707 18.75512695 38.59228516 C15.97593373 30.63063098 12.74898217 23.08604921 8.8125 15.625 C8.18879517 14.44019043 8.18879517 14.44019043 7.55249023 13.23144531 C5.33938019 9.14257066 2.94465851 5.61482217 0 2 C0 1.34 0 0.68 0 0 Z " fill="#0C97F9" transform="translate(298,33)"/>
<path d="M0 0 C14.59193983 6.0306172 21.74247786 21.83757934 27.875 35.3125 C28.25640137 36.1480542 28.63780273 36.9836084 29.03076172 37.84448242 C31.24127429 42.84222781 32.83249347 47.6601938 34 53 C25.34342708 53.46374498 19.33287774 50.82937618 11.76171875 46.8671875 C8.57157689 45.29687377 5.93766274 44.86181819 2.43676758 44.79467773 C1.51603958 44.77473251 0.59531158 44.75478729 -0.35331726 44.73423767 C-1.34402725 44.71752518 -2.33473724 44.70081268 -3.35546875 44.68359375 C-4.37224197 44.66281265 -5.3890152 44.64203156 -6.43659973 44.62062073 C-9.68683063 44.55519952 -12.93714277 44.49627463 -16.1875 44.4375 C-18.38998238 44.39430773 -20.59245653 44.35069321 -22.79492188 44.30664062 C-28.19652853 44.19952573 -33.59821612 44.09774543 -39 44 C-36.30312066 28.48997738 -25.74041165 11.18059075 -13 2 C-8.71130278 -0.51875869 -4.87311538 -0.77197867 0 0 Z " fill="#03A7FB" transform="translate(275,30)"/>
<path d="M0 0 C3.5676825 1.41182753 7.10329739 2.88473934 10.62890625 4.3984375 C11.73169922 4.87152344 12.83449219 5.34460938 13.97070312 5.83203125 C15.15599609 6.34121094 16.34128906 6.85039062 17.5625 7.375 C18.8157275 7.91282499 20.06898322 8.45058423 21.32226562 8.98828125 C23.92475126 10.10488868 26.52711551 11.22177833 29.12939453 12.33886719 C35.08512783 14.8952263 41.04265657 17.447396 47 20 C49.29688345 20.98435529 51.59375839 21.96873043 53.890625 22.953125 C55.04111328 23.44619141 56.19160156 23.93925781 57.37695312 24.44726562 C67.91796875 28.96484375 78.45898438 33.48242188 89 38 C85.91926136 41.60457111 82.83529355 45.20364861 79.6875 48.75 C75.32285603 53.7213882 71.16546474 58.86164894 67 64 C63.48391522 63.4183433 61.84807697 62.21235489 59.36816406 59.69287109 C58.67354065 58.9947934 57.97891724 58.2967157 57.26324463 57.57748413 C56.52153015 56.81714874 55.77981567 56.05681335 55.015625 55.2734375 C54.24120056 54.49239655 53.46677612 53.71135559 52.66888428 52.90664673 C50.18874086 50.40307984 47.71893323 47.88961859 45.25 45.375 C42.79371664 42.883489 40.33526684 40.39417425 37.8739624 37.90762329 C36.34351999 36.36040657 34.81618681 34.81010579 33.2925415 33.25619507 C29.26492215 29.17300138 25.13708168 25.29908374 20.78997803 21.55819702 C18.4554109 19.52592875 16.25240044 17.38193745 14.0625 15.1953125 C13.23105469 14.36515625 12.39960938 13.535 11.54296875 12.6796875 C10.70378906 11.83664063 9.86460937 10.99359375 9 10.125 C8.12988281 9.25875 7.25976562 8.3925 6.36328125 7.5 C5.54214844 6.67757812 4.72101563 5.85515625 3.875 5.0078125 C3.12992188 4.26160645 2.38484375 3.51540039 1.6171875 2.74658203 C0 1 0 1 0 0 Z " fill="#3044BB" transform="translate(148,230)"/>
<path d="M0 0 C0.33 0 0.66 0 1 0 C0.03644647 15.74487472 0.03644647 15.74487472 -1 23 C-1.85722656 22.93039063 -2.71445313 22.86078125 -3.59765625 22.7890625 C-11.49828387 22.26775119 -11.49828387 22.26775119 -18.25 25.8125 C-20.38345345 27.95123428 -21.0169882 29.05096461 -22 32 C-23.2065625 31.93039063 -24.413125 31.86078125 -25.65625 31.7890625 C-35.88958098 31.01050615 -35.88958098 31.01050615 -45 34.875 C-46.67228234 36.42888683 -46.67228234 36.42888683 -48 38 C-50.77124896 40.77124896 -53.03828664 40.70230658 -56.89453125 41.33203125 C-58.33073227 41.57330512 -59.76693005 41.8145982 -61.203125 42.0559082 C-61.95658203 42.17938629 -62.71003906 42.30286438 -63.48632812 42.43008423 C-74.56008196 44.25057658 -85.58923734 46.16396933 -96.5 48.8125 C-97.35182861 49.01915283 -98.20365723 49.22580566 -99.08129883 49.4387207 C-103.14326976 50.4269545 -103.14326976 50.4269545 -107 52 C-107.68729254 54.11846285 -107.68729254 54.11846285 -108.125 56.5625 C-108.29257813 57.38878906 -108.46015625 58.21507812 -108.6328125 59.06640625 C-108.75398438 59.70449219 -108.87515625 60.34257812 -109 61 C-111.63534505 58.36465495 -111.32850126 57.04840007 -111.375 53.375 C-111.25328192 47.7218715 -110.58255306 43.47070688 -107 39 C-100.44186954 32.8662997 -94.57877846 30.71637504 -85.62109375 30.69140625 C-83.96028332 30.66622191 -82.29947611 30.64082429 -80.63867188 30.61523438 C-78.04778069 30.58668259 -75.45694614 30.56264216 -72.8659668 30.54370117 C-62.8432483 30.45629654 -53.62322534 30.15225652 -44 27 C-43.27240479 26.77594482 -42.54480957 26.55188965 -41.79516602 26.32104492 C-25.57272563 21.11323368 -12.01079726 12.01079726 0 0 Z " fill="#0EB3FA" transform="translate(214,166)"/>
<path d="M0 0 C10.0043584 3.26229078 17.31250234 9.24727774 23 18 C23.928125 19.423125 23.928125 19.423125 24.875 20.875 C26.57800704 25.6055751 27.49436116 29.07778408 26 34 C22.66672585 39.17227283 18.29950133 43.62625639 14 48 C13.50669189 48.55695557 13.01338379 49.11391113 12.50512695 49.68774414 C11 51 11 51 8 51 C7.79246094 50.24976563 7.58492188 49.49953125 7.37109375 48.7265625 C4.41635201 38.91039119 0.07358488 30.29990751 -8.53515625 24.31640625 C-13.742958 21.53506046 -19.38816264 19.78128545 -25 18 C-21.1573025 9.26659659 -10.01078079 -1.75627733 0 0 Z " fill="#7F6C7F" transform="translate(343,183)"/>
<path d="M0 0 C4.72919964 0.13511999 8.79192857 2.6292658 12 6 C12.53045491 9.18272949 12.19880309 11.27022319 11.35839844 14.35522461 C10.92025127 17.58850003 11.55323196 19.30236703 12.765625 22.31640625 C13.16136719 23.32896484 13.55710937 24.34152344 13.96484375 25.38476562 C14.38894531 26.43341797 14.81304687 27.48207031 15.25 28.5625 C18.47187272 36.61718181 21.10484864 44.52572286 23 53 C22.24283691 53.02529785 21.48567383 53.0505957 20.70556641 53.07666016 C14.38497581 53.3355979 8.63838617 54.45497284 2.625 56.3125 C1.62726563 56.61353638 1.62726563 56.61353638 0.609375 56.9206543 C-3.78322542 58.34350842 -7.25787339 60.32311002 -11 63 C-11.99 63.495 -11.99 63.495 -13 64 C-12.50855092 60.85472592 -11.74737325 58.43411607 -10.4375 55.5 C-7.98948805 49.25458416 -7.88645437 41.3406369 -10 35 C-9.34 35 -8.68 35 -8 35 C-6.66666667 36.66666667 -5.33333333 38.33333333 -4 40 C-3.34 40 -2.68 40 -2 40 C-1.67 36.37 -1.34 32.74 -1 29 C-2.32 28.67 -3.64 28.34 -5 28 C-7.140625 26.58984375 -7.140625 26.58984375 -9.25 24.9375 C-9.95640625 24.38964844 -10.6628125 23.84179688 -11.390625 23.27734375 C-11.92171875 22.85582031 -12.4528125 22.43429688 -13 22 C-12.57500029 16.34490187 -10.36842718 13.12699194 -7.0625 8.75 C-6.60681641 8.12609375 -6.15113281 7.5021875 -5.68164062 6.859375 C-3.89621808 4.43350074 -2.13244714 2.13244714 0 0 Z " fill="#256BF0" transform="translate(405,128)"/>
<path d="M0 0 C20.79975925 1.84825447 40.56803689 6.84830147 60.17724609 13.97802734 C62.00992158 14.641544 63.84862628 15.2887206 65.69384766 15.91650391 C74.19445432 18.83491124 80.889308 21.15698407 85.25 29.5 C85.97635475 31.33655551 86.7018042 33.17517412 87.33642578 35.04541016 C88.02792831 37.08226419 88.79799459 39.07438347 89.58984375 41.07421875 C90.89731752 44.410313 92.12806951 47.76773768 93.33007812 51.14306641 C93.96359006 52.89907652 94.6292969 54.64337474 95.296875 56.38671875 C95.86148438 57.86591797 95.86148438 57.86591797 96.4375 59.375 C96.76621094 60.22835937 97.09492188 61.08171875 97.43359375 61.9609375 C98 64 98 64 97 66 C87.41386414 55.50732815 87.41386414 55.50732815 83.375 50.8125 C72.06133487 37.9049929 58.69780548 27.77074683 44 19 C43.42733398 18.65340332 42.85466797 18.30680664 42.26464844 17.94970703 C29.18252771 10.13932144 14.76730626 5.52498852 0 2 C0 1.34 0 0.68 0 0 Z " fill="#0B98F9" transform="translate(297,19)"/>
<path d="M0 0 C1.69576172 0.19432617 1.69576172 0.19432617 3.42578125 0.39257812 C5.20662109 0.60624023 5.20662109 0.60624023 7.0234375 0.82421875 C8.18746094 0.95505859 9.35148437 1.08589844 10.55078125 1.22070312 C16.65020554 1.93564131 22.48686934 2.84042355 28.3984375 4.51171875 C26.82681014 9.09563187 24.37157344 12.74423587 21.6484375 16.69921875 C18.08067963 21.94660288 14.68934054 27.23181398 11.5546875 32.75390625 C10.3984375 34.51171875 10.3984375 34.51171875 8.3984375 35.51171875 C6.67773438 34.7265625 6.67773438 34.7265625 4.6171875 33.44921875 C3.86163574 32.98531738 3.10608398 32.52141602 2.32763672 32.04345703 C1.52600098 31.5379834 0.72436523 31.03250977 -0.1015625 30.51171875 C-0.91222168 30.00495605 -1.72288086 29.49819336 -2.55810547 28.97607422 C-4.17295153 27.96118496 -5.78483205 26.94156013 -7.39355469 25.91699219 C-8.73347511 25.06420781 -10.07694698 24.21692442 -11.42675781 23.37988281 C-12.87157978 22.4838623 -14.30008652 21.56166715 -15.7265625 20.63671875 C-16.49226563 20.14429688 -17.25796875 19.651875 -18.046875 19.14453125 C-19.6015625 17.51171875 -19.6015625 17.51171875 -20.2109375 15.20703125 C-19.28652915 11.11830201 -16.72487553 9.06105906 -13.7265625 6.26171875 C-13.17097656 5.7203125 -12.61539063 5.17890625 -12.04296875 4.62109375 C-7.59958749 0.33831664 -6.07178599 -0.69817448 0 0 Z " fill="#FBC73E" transform="translate(133.6015625,354.48828125)"/>
<path d="M0 0 C2.1404348 3.21065221 2.49942555 5.00723988 3.0703125 8.76953125 C3.24433594 9.90583984 3.41835937 11.04214844 3.59765625 12.21289062 C3.77167969 13.40076172 3.94570312 14.58863281 4.125 15.8125 C4.30675781 16.98876953 4.48851562 18.16503906 4.67578125 19.37695312 C6.81800803 33.62356658 6.81800803 33.62356658 4.88598633 36.87451172 C4.37318115 37.38771973 3.86037598 37.90092773 3.33203125 38.4296875 C2.76806641 38.996875 2.20410156 39.5640625 1.62304688 40.1484375 C1.02556641 40.71820313 0.42808594 41.28796875 -0.1875 41.875 C-0.76564453 42.46796875 -1.34378906 43.0609375 -1.93945312 43.671875 C-4.42714702 46.11178269 -6.26329563 47.77526132 -9.625 48.80078125 C-13.3852187 47.53294435 -14.84464969 44.55202345 -16.8125 41.3125 C-17.23901855 40.6414624 -17.66553711 39.9704248 -18.10498047 39.27905273 C-19.42185455 37.19698128 -20.71256323 35.10037376 -22 33 C-22.8078189 31.70264221 -23.61638019 30.4057463 -24.42578125 29.109375 C-26.30559769 26.08595947 -28.15998725 23.04784234 -30 20 C-27.23678558 16.79143234 -23.67744257 14.90750809 -20.0625 12.8125 C-13.2042156 8.77521138 -6.57221157 4.49162318 0 0 Z " fill="#FBC63E" transform="translate(192,390)"/>
<path d="M0 0 C12.44193423 6.86021436 22.78832224 16.233518 33 26 C33.67804688 26.63679688 34.35609375 27.27359375 35.0546875 27.9296875 C40.17180129 32.85815193 44.69385377 38.35611674 49 44 C49 44.33 49 44.66 49 45 C37.78 45 26.56 45 15 45 C10 30 5 15 0 0 Z " fill="#2765F0" transform="translate(425,136)"/>
<path d="M0 0 C4.58325461 1.83330184 6.80873223 4.61746446 9 9 C9.68030191 13.28590202 9.50455528 16.80500065 7.8125 20.8125 C5.28549495 23.86233368 2.55081434 26.22459283 -1 28 C-7.10685229 28.50890436 -10.12959772 28.0775461 -15 24 C-17.89626035 20.70425546 -18.89660298 18.09600845 -19.3125 13.6875 C-18.83459269 8.04819378 -16.47049853 5.29951033 -12.3125 1.625 C-8.03194098 -0.47489688 -4.68277033 -0.70241555 0 0 Z " fill="#FD603B" transform="translate(171,65)"/>
<path d="M0 0 C4.39890382 2.22741104 6.42970084 4.69144627 7.96875 9.30859375 C8.53013108 14.54815054 7.82507372 17.87636728 4.96875 22.30859375 C1.49173491 26.09240429 -1.76356335 27.11920121 -6.75 27.4765625 C-11.4877177 27.1277237 -14.73630312 24.73303531 -17.90625 21.24609375 C-20.29558217 17.13113279 -20.66526274 12.95802049 -20.03125 8.30859375 C-15.80951349 0.02148133 -8.87328207 -3.0203287 0 0 Z " fill="#79DB7D" transform="translate(480.03125,205.69140625)"/>
<path d="M0 0 C3.19026198 2.10267267 4.88874348 3.44792091 6.75 6.8125 C7.61832509 12.64686408 7.33436641 17.95626164 3.75 22.8125 C0.46647967 25.52755557 -2.48733699 26.6877006 -6.6875 27.375 C-11.29401787 26.64765507 -14.73567631 24.88248391 -18.25 21.8125 C-21.23187269 17.26223972 -20.99968896 12.0451775 -20.25 6.8125 C-18.64524247 3.57101766 -16.31146654 1.61775048 -13.4375 -0.5625 C-8.63065912 -1.93588311 -4.6064147 -1.68311307 0 0 Z " fill="#70D37B" transform="translate(98.25,170.1875)"/>
<path d="M0 0 C18.35469091 -0.16519222 36.66018932 0.34556621 55 1 C54.20577637 1.78262207 53.41155273 2.56524414 52.59326172 3.37158203 C50.06437483 5.80333737 50.06437483 5.80333737 48.5078125 8.0546875 C46.8289714 10.26468737 45.40945017 11.5996358 43 13 C38.741006 13.4751069 34.71603838 12.95704305 30.48730469 12.34863281 C27.58222742 11.94144295 24.67231034 11.60644765 21.7578125 11.2734375 C17.47543813 10.77352466 13.19470179 10.26500905 8.91796875 9.71875 C8.01844482 9.60466797 7.1189209 9.49058594 6.19213867 9.37304688 C4 9 4 9 2 8 C1.3671875 6.15234375 1.3671875 6.15234375 0.875 3.9375 C0.70742187 3.20402344 0.53984375 2.47054687 0.3671875 1.71484375 C0.24601563 1.14894531 0.12484375 0.58304688 0 0 Z " fill="#188AF4" transform="translate(251,198)"/>
<path d="M0 0 C8.94608246 0.23686165 14.49078229 4.02412854 21.03125 9.8984375 C23.17950427 12.46440788 23.7851079 13.93845764 24 17.25 C22.53891407 20.25811809 21.29838736 21.11436938 18.25 22.5 C14.60414186 23.34135188 11.72812907 23.65670499 8 23.25 C6.32476605 21.92744688 4.65893182 20.59294481 3 19.25 C0.03870114 18.33806025 -2.94531598 17.75578646 -6 17.25 C-6.23534715 11.48399495 -5.93384486 6.71026785 -4 1.25 C-3 0.25 -3 0.25 0 0 Z " fill="#F92915" transform="translate(430,10.75)"/>
<path d="M0 0 C3.22088984 4.99237925 3.36560211 9.28777216 2.25 14.9375 C-6.08939405 17.46185712 -16.71519296 20.52809973 -25.125 16.91796875 C-25.66125 16.59441406 -26.1975 16.27085937 -26.75 15.9375 C-27.06364748 9.97819781 -26.55867326 6.23076883 -23.75 0.9375 C-20.88006814 -0.49746593 -18.19398705 -0.41274137 -15 -0.625 C-13.78828125 -0.70878906 -12.5765625 -0.79257812 -11.328125 -0.87890625 C-2.21755092 -1.3463702 -2.21755092 -1.3463702 0 0 Z " fill="#FE6A40" transform="translate(48.75,451.0625)"/>
<path d="M0 0 C4.89714687 0.2825277 8.9790213 1.12787235 13 4 C14.8599627 10.34813357 13.08454325 14.21621856 10.25 19.8125 C9.8890625 20.57498047 9.528125 21.33746094 9.15625 22.12304688 C6.42678981 27.71547346 6.42678981 27.71547346 3 30 C-1.61790002 29.69214 -6.62508678 28.37491322 -10 25 C-10.69542222 19.25830885 -8.60359707 15.25007645 -6.125 10.25 C-5.76019531 9.48300781 -5.39539063 8.71601563 -5.01953125 7.92578125 C-2.30110013 2.30110013 -2.30110013 2.30110013 0 0 Z " fill="#FF6C41" transform="translate(19,377)"/>
<path d="M0 0 C2.25684543 5.36000789 3.36263859 9.1977825 3 15 C-1.72283043 17.14466696 -6.468373 19.23970636 -11.25 21.25 C-12.03890625 21.58515625 -12.8278125 21.9203125 -13.640625 22.265625 C-16.31285566 23.09737891 -18.22165684 23.38778189 -21 23 C-23.81827644 20.3208977 -25.73632899 16.76329989 -26.3125 12.91015625 C-26.3125 11 -26.3125 11 -26 8 C-9.68352341 -0.61809724 -9.68352341 -0.61809724 0 0 Z " fill="#FA311A" transform="translate(406,15)"/>
<path d="M0 0 C2.75037359 2.95027543 3.76579102 6.85497834 4.5625 10.75 C3.72678881 14.09284477 1.76213213 15.01036048 -1 17 C-3.08828413 18.15252137 -5.21658328 19.23487765 -7.375 20.25 C-8.45523438 20.77078125 -9.53546875 21.2915625 -10.6484375 21.828125 C-14.30316619 23.10600216 -17.15687788 23.21404731 -21 23 C-21.6509259 21.75264433 -22.29551669 20.50198168 -22.9375 19.25 C-23.29714844 18.55390625 -23.65679687 17.8578125 -24.02734375 17.140625 C-24.98914633 15.02388678 -25.71360958 13.30930692 -26 11 C-24.08790085 5.96760719 -20.4536478 4.83349142 -15.8125 2.6875 C-15.06935547 2.31560547 -14.32621094 1.94371094 -13.56054688 1.56054688 C-8.71525484 -0.71984035 -5.33164764 -1.6585856 0 0 Z " fill="#FE623B" transform="translate(90,435)"/>
<path d="M0 0 C2.39453125 0.515625 2.39453125 0.515625 5.14453125 1.890625 C8.40071979 8.72862093 3.63591025 18.34913885 1.39453125 25.08203125 C0.39453125 27.515625 0.39453125 27.515625 -1.60546875 29.515625 C-6.61410254 29.22666536 -11.91018186 28.21091189 -15.60546875 24.515625 C-15.98562827 18.9279973 -14.98767249 14.44262452 -13.29296875 9.203125 C-13.07962891 8.48833984 -12.86628906 7.77355469 -12.64648438 7.03710938 C-10.27175699 -0.48404213 -7.21193348 -0.97144638 0 0 Z " fill="#F92915" transform="translate(450.60546875,48.484375)"/>
<path d="M0 0 C-0.556875 0.81339844 -1.11375 1.62679687 -1.6875 2.46484375 C-7.80082139 11.58023057 -12.49977223 21.00668845 -17 31 C-17.65657872 32.33832978 -18.31690764 33.67500677 -19 35 C-22.60973291 33.7967557 -23.34728717 32.30932513 -25.09912109 29.04101562 C-26.57232365 25.70335346 -27.2207078 22.33418777 -27.8125 18.75 C-28.01262695 17.69039062 -28.01262695 17.69039062 -28.21679688 16.609375 C-28.80505352 13.28745515 -29.08278417 11.24835252 -28 8 C-8.06619389 -2.64614958 -8.06619389 -2.64614958 0 0 Z " fill="#01AEFC" transform="translate(244,34)"/>
<path d="M0 0 C4.08776633 0.54503551 8.70427115 1.45427115 11.75 4.5 C12.00878971 7.91483428 11.88292831 11.32854742 11.8125 14.75 C11.82732422 15.70519531 11.84214844 16.66039062 11.85742188 17.64453125 C11.67978204 24.54847939 11.67978204 24.54847939 9.01660156 27.27392578 C4.93486676 29.91775539 1.70834828 31.20833547 -3.25 30.5 C-5.25 29.5 -5.25 29.5 -6.25 26.5 C-6.50424949 23.04605916 -6.48128473 19.58732577 -6.5 16.125 C-6.520625 15.17882812 -6.54125 14.23265625 -6.5625 13.2578125 C-6.63125067 1.02019241 -6.63125067 1.02019241 0 0 Z " fill="#FF6E43" transform="translate(6.25,419.5)"/>
<path d="M0 0 C2.18900441 1.17319191 4.00845818 2.49420009 6 4 C5.55869594 10.10604339 3.55188828 14.22459587 0.4375 19.4375 C0.01275391 20.16904297 -0.41199219 20.90058594 -0.84960938 21.65429688 C-1.88959514 23.44213758 -2.94340177 25.22192662 -4 27 C-9.81894878 27.21399246 -12.36004637 26.45722035 -17 23 C-18.11636331 20.0065258 -18.34976456 17.97339812 -17.25854492 14.93652344 C-16.15150095 12.63109607 -14.94872249 10.41218268 -13.6875 8.1875 C-13.27048828 7.41212891 -12.85347656 6.63675781 -12.42382812 5.83789062 C-8.93492393 -0.52226486 -7.56697576 -1.63951141 0 0 Z " fill="#F42D1C" transform="translate(434,91)"/>
<path d="M0 0 C1.8359375 1.828125 1.8359375 1.828125 3.375 4.25 C3.89835937 5.03890625 4.42171875 5.8278125 4.9609375 6.640625 C6 9 6 9 5.87890625 11.1171875 C4.12264573 14.87948781 0.3603493 16.75427637 -3 19 C-4.27617188 19.86818359 -4.27617188 19.86818359 -5.578125 20.75390625 C-12.20844312 25.03185102 -12.20844312 25.03185102 -15.62109375 24.89453125 C-18.49011041 23.81570561 -19.30207584 22.84874426 -20.875 20.25 C-21.30554688 19.57453125 -21.73609375 18.8990625 -22.1796875 18.203125 C-23.25994517 15.30186154 -23.08518801 13.89230193 -22 11 C-19.9609375 9.12109375 -19.9609375 9.12109375 -17.375 7.4375 C-16.47136719 6.84710938 -15.56773438 6.25671875 -14.63671875 5.6484375 C-13.76660156 5.10445313 -12.89648438 4.56046875 -12 4 C-11.32582031 3.55914062 -10.65164062 3.11828125 -9.95703125 2.6640625 C-6.48888776 0.50508575 -4.06963015 -0.58860903 0 0 Z " fill="#F75E3C" transform="translate(127,412)"/>
<path d="M0 0 C4.21475887 0.12042168 7.19824827 2.1583715 10.64453125 4.35546875 C12 6 12 6 12.4375 8.828125 C11.90101612 12.71763314 10.60761704 14.49701841 8.1875 17.5625 C6.08238186 20.26579379 4.10378544 22.81786672 2.40625 25.796875 C1 28 1 28 -1.6875 28.6875 C-6.40219703 27.70897797 -9.38902601 25.07940929 -13 22 C-12.57500029 16.34490187 -10.36842718 13.12699194 -7.0625 8.75 C-6.60681641 8.12609375 -6.15113281 7.5021875 -5.68164062 6.859375 C-3.89621808 4.43350074 -2.13244714 2.13244714 0 0 Z " fill="#F4311E" transform="translate(405,128)"/>
<path d="M0 0 C2.77734375 2.03125 2.77734375 2.03125 5 4 C-1.66666667 10.66666667 -8.33333333 17.33333333 -15 24 C-18.66356295 19.38072498 -19.50178113 15.9210173 -19 10 C-15.08216071 2.31500755 -8.67285603 -2.05131899 0 0 Z " fill="#FE7348" transform="translate(171,65)"/>
<path d="M0 0 C4.19367478 0.24668675 6.4537124 0.55303742 9.75 3.25 C12.81567201 6.99693245 14.76638313 9.45228821 15.5 14.3125 C14.84817204 19.1197312 13.07667355 22.28792648 10 26 C5.96875 29 5.96875 29 3 29 C2.49491028 25.10480894 1.99682267 21.20875343 1.5 17.3125 C1.35691406 16.20970703 1.21382813 15.10691406 1.06640625 13.97070312 C0.93105469 12.90400391 0.79570312 11.83730469 0.65625 10.73828125 C0.53056641 9.75899658 0.40488281 8.77971191 0.27539062 7.77075195 C0.01567205 5.15767911 -0.05025329 2.62364032 0 0 Z " fill="#EFEEF9" transform="translate(350,332)"/>
<path d="M0 0 C3.80618426 1.34461463 6.40170538 3.24730676 8.9375 6.4375 C10.08167482 9.19698045 10.08370352 11.05068185 10 14 C-0.72948787 13.40652032 -11.34033317 12.34387477 -22 11 C-20.68 10.67 -19.36 10.34 -18 10 C-17.89558594 9.40703125 -17.79117188 8.8140625 -17.68359375 8.203125 C-15.20860709 0.22659655 -7.33521872 -1.37756114 0 0 Z " fill="#F5F4FA" transform="translate(210,188)"/>
<path d="M0 0 C6.76976629 1.12829438 6.76976629 1.12829438 9.8125 3.9375 C10.39644531 4.46214844 10.98039062 4.98679687 11.58203125 5.52734375 C14.97202912 9.04808534 14.44585163 13.29778804 14.41796875 17.9375 C13.86890041 21.96058015 12.46773709 23.92363651 9.703125 26.79296875 C7.81296843 28.13255219 6.22844033 28.46161631 4 29 C3.67 29.66 3.34 30.32 3 31 C2.01 20.77 1.02 10.54 0 0 Z " fill="#F4F3FA" transform="translate(346,299)"/>
<path d="M0 0 C4.85748749 2.33879027 7.44264739 5.27873365 10 10 C10 11.32 10 12.64 10 14 C0.27604657 13.367277 -9.34455651 12.27665042 -19 11 C-18.18104165 7.1120159 -16.71307348 4.94562264 -14 2 C-9.54439577 -0.73606401 -5.07954778 -0.64298073 0 0 Z " fill="#F4F3FA" transform="translate(243,192)"/>
<path d="M0 0 C0.33 0 0.66 0 1 0 C1 15.18 1 30.36 1 46 C0.67 46 0.34 46 0 46 C-0.33 43.03 -0.66 40.06 -1 37 C-5.29 39.97 -9.58 42.94 -14 46 C-15 44 -15 44 -14.49023438 42.21020508 C-14.19439453 41.48728271 -13.89855469 40.76436035 -13.59375 40.01953125 C-13.26503906 39.19541748 -12.93632812 38.37130371 -12.59765625 37.5222168 C-12.23542969 36.62801025 -11.87320312 35.73380371 -11.5 34.8125 C-6.99710231 23.40001798 -3.41518299 11.77688338 0 0 Z " fill="#374FF0" transform="translate(439,338)"/>
<path d="M0 0 C1.2375 0.7425 1.2375 0.7425 2.5 1.5 C-4.16666667 8.16666667 -10.83333333 14.83333333 -17.5 21.5 C-20.86707745 17.29115318 -21.06416037 14.52780587 -20.921875 9.19921875 C-20.15315821 4.28085483 -17.59473181 2.08910689 -13.6875 -0.875 C-8.64203377 -2.31656178 -4.72222287 -2.0238098 0 0 Z " fill="#8BEC7F" transform="translate(98.5,170.5)"/>
<path d="M0 0 C0.66 0 1.32 0 2 0 C3.375 1.3984375 3.375 1.3984375 5 3.375 C8.76222012 7.82921409 12.86058282 11.85683532 17.05859375 15.8984375 C19 18 19 18 19 20 C18.29875 20.17015625 17.5975 20.3403125 16.875 20.515625 C9.52771411 22.39237737 3.30922585 24.79384943 -3 29 C-2.50855092 25.85472592 -1.74737325 23.43411607 -0.4375 20.5 C2.01051195 14.25458416 2.11354563 6.3406369 0 0 Z " fill="#3350D1" transform="translate(395,163)"/>
<path d="M0 0 C4.6803825 1.62284619 8.63425287 3.28276662 12 7 C11.42636719 6.8453125 10.85273438 6.690625 10.26171875 6.53125 C5.43179998 5.39676131 1.12975639 4.80178981 -3.33984375 7.31640625 C-7.18238262 10.25250006 -10.38529103 13.43140404 -13.5625 17.0625 C-15.2265625 18.8203125 -15.2265625 18.8203125 -17 20 C-20.13848202 19.98890996 -22.02788995 19.19927248 -25 18 C-21.1573025 9.26659659 -10.01078079 -1.75627733 0 0 Z " fill="#8C7A8B" transform="translate(343,183)"/>
<path d="M0 0 C1.29744141 0.01353516 1.29744141 0.01353516 2.62109375 0.02734375 C3.26175781 0.03894531 3.90242188 0.05054687 4.5625 0.0625 C0.85877346 2.24454044 -3.09735398 2.94117548 -7.25 3.8125 C-16.61280986 5.89009143 -26.04189098 8.76724498 -34.27734375 13.796875 C-38.69340146 15.56548155 -42.1888208 14.93949602 -46.8125 14.25 C-47.64394531 14.14107422 -48.47539062 14.03214844 -49.33203125 13.91992188 C-51.36943591 13.65060976 -53.40384607 13.35880807 -55.4375 13.0625 C-41.69059887 3.89789925 -16.24865094 -0.22258426 0 0 Z " fill="#05AFFC" transform="translate(245.4375,18.9375)"/>
<path d="M0 0 C-1.32972165 2.90121088 -2.8094802 5.12744003 -4.9375 7.5 C-5.55753906 8.19351562 -6.17757812 8.88703125 -6.81640625 9.6015625 C-10.27542549 13.40091458 -13.74509523 17.19028671 -17.22265625 20.97265625 C-19.7656017 23.74093712 -22.29387316 26.52204834 -24.8125 29.3125 C-25.53695312 30.11042969 -26.26140625 30.90835937 -27.0078125 31.73046875 C-28.27568223 33.17484583 -29.50524322 34.65446622 -30.6796875 36.17578125 C-34.34585361 40.91520325 -34.34585361 40.91520325 -38.375 41.4375 C-39.24125 41.293125 -40.1075 41.14875 -41 41 C-39.58372032 37.78700915 -37.88182508 35.62912109 -35.40820312 33.14941406 C-34.67404175 32.40894836 -33.93988037 31.66848267 -33.18347168 30.90557861 C-32.39073853 30.11689392 -31.59800537 29.32820923 -30.78125 28.515625 C-29.56072937 27.29223419 -29.56072937 27.29223419 -28.31555176 26.04412842 C-26.59645354 24.32367022 -24.87483106 22.6057311 -23.15087891 20.89013672 C-20.50320366 18.25319068 -17.86638469 15.6057262 -15.23046875 12.95703125 C-13.560537 11.28842058 -11.88998522 9.62043014 -10.21875 7.953125 C-9.02965027 6.75795258 -9.02965027 6.75795258 -7.81652832 5.53863525 C-7.08236694 4.8107782 -6.34820557 4.08292114 -5.59179688 3.33300781 C-4.94496948 2.68777161 -4.29814209 2.0425354 -3.63171387 1.37774658 C-2 0 -2 0 0 0 Z " fill="#C5DAFF" transform="translate(202,353)"/>
<path d="M0 0 C2.71449441 1.10186665 4.54862051 2.25574921 7 4 C8.0625 7.0625 8.0625 7.0625 8 10 C7.01 11.485 7.01 11.485 6 13 C0.92380511 13.96689426 -2.18559132 12.0626065 -6.36328125 9.484375 C-8.32903021 7.70159552 -8.7092056 6.61195689 -9 4 C-7.12396378 -1.05086674 -4.98711206 -1.44072126 0 0 Z " fill="#FE693F" transform="translate(38,354)"/>
<path d="M0 0 C0.60693642 7.16184971 0.60693642 7.16184971 -1.96875 10.71875 C-5.98119442 13.73842466 -8.91807753 13.77557644 -13.8125 13.8125 C-14.99489258 13.85020508 -14.99489258 13.85020508 -16.20117188 13.88867188 C-18.13358373 13.94722981 -20.06684327 13.97655488 -22 14 C-22.33 13.34 -22.66 12.68 -23 12 C-21.90300781 11.46890625 -20.80601562 10.9378125 -19.67578125 10.390625 C-18.22119474 9.67740839 -16.7667765 8.96384852 -15.3125 8.25 C-14.59126953 7.90195313 -13.87003906 7.55390625 -13.12695312 7.1953125 C-9.17221187 5.24502914 -4.04464288 0 0 0 Z " fill="#10A0F9" transform="translate(202,178)"/>
<path d="M0 0 C8.25106086 4.68145297 16.16467051 9.65141515 24 15 C23.01 16.98 22.02 18.96 21 21 C16.71338862 17.41324354 12.68361262 13.73312765 8.77734375 9.73828125 C6.40662869 7.41966982 3.87048223 5.33566157 1.28515625 3.26171875 C0.86105469 2.84535156 0.43695313 2.42898438 0 2 C0 1.34 0 0.68 0 0 Z " fill="#3749B8" transform="translate(119,375)"/>
<path d="M0 0 C0.06241257 4.0122365 0.04854653 7.59228284 -2.4140625 10.8984375 C-6.03096368 14.164802 -9.01149274 15.75665818 -14 16 C-14 13 -14 13 -12.82250977 11.46606445 C-12.01511353 10.67268677 -12.01511353 10.67268677 -11.19140625 9.86328125 C-10.60939453 9.28642578 -10.02738281 8.70957031 -9.42773438 8.11523438 C-8.81220703 7.52033203 -8.19667969 6.92542969 -7.5625 6.3125 C-6.95083984 5.70599609 -6.33917969 5.09949219 -5.70898438 4.47460938 C-1.1538421 0 -1.1538421 0 0 0 Z " fill="#FB4C2F" transform="translate(180,77)"/>
<path d="M0 0 C-0.11807159 4.92680554 -0.25002805 8.07695761 -3.4375 12 C-7.51296363 15.18084966 -9.85592012 15.09526074 -15 15 C-2.5 0 -2.5 0 0 0 Z " fill="#5BC076" transform="translate(105,181)"/>
<path d="M0 0 C0.33 0.66 0.66 1.32 1 2 C2.2065625 1.96519531 3.413125 1.93039063 4.65625 1.89453125 C6.27081928 1.86637016 7.88540379 1.83907251 9.5 1.8125 C10.29148438 1.78736328 11.08296875 1.76222656 11.8984375 1.73632812 C17.62130318 1.66596502 21.75203857 2.70702602 27 5 C27.33 4.01 27.66 3.02 28 2 C28 3.65 28 5.3 28 7 C17.27051213 6.40652032 6.65966683 5.34387477 -4 4 C-2.68 3.67 -1.36 3.34 0 3 C0 2.01 0 1.02 0 0 Z " fill="#E1D9DE" transform="translate(192,195)"/>
<path d="M0 0 C0.89589844 0.00322266 1.79179688 0.00644531 2.71484375 0.00976562 C4.12056641 0.02233398 4.12056641 0.02233398 5.5546875 0.03515625 C6.49957031 0.03966797 7.44445312 0.04417969 8.41796875 0.04882812 C10.75527137 0.06063268 13.09244811 0.07709866 15.4296875 0.09765625 C15.4296875 0.42765625 15.4296875 0.75765625 15.4296875 1.09765625 C11.66168614 1.96465763 7.88992854 2.81403884 4.1171875 3.66015625 C3.04533203 3.90701172 1.97347656 4.15386719 0.86914062 4.40820312 C-0.15888672 4.63701172 -1.18691406 4.86582031 -2.24609375 5.1015625 C-3.19395752 5.31627197 -4.14182129 5.53098145 -5.1184082 5.75219727 C-7.5703125 6.09765625 -7.5703125 6.09765625 -10.5703125 5.09765625 C-6.92270084 1.32845753 -5.25056629 -0.03323143 0 0 Z " fill="#06AAFB" transform="translate(121.5703125,197.90234375)"/>
<path d="M0 0 C0 3.46800053 -0.34190588 3.7288147 -2.6328125 6.109375 C-3.19226563 6.69976562 -3.75171875 7.29015625 -4.328125 7.8984375 C-5.21757812 8.81496094 -5.21757812 8.81496094 -6.125 9.75 C-7.27479791 10.95182496 -8.42323982 12.15494869 -9.5703125 13.359375 C-10.1365332 13.95298828 -10.70275391 14.54660156 -11.28613281 15.15820312 C-13.95429895 18.02553152 -16.47472152 21.0065088 -19 24 C-20.32 23.67 -21.64 23.34 -23 23 C-15.41 15.41 -7.82 7.82 0 0 Z " fill="#B7CEFF" transform="translate(186,370)"/>
<path d="M0 0 C2.97 0.495 2.97 0.495 6 1 C5.34 1.66 4.68 2.32 4 3 C3.2141417 10.84702622 3.66006638 19.43132584 6 27 C6.66 27.33 7.32 27.66 8 28 C7.360625 28.12375 6.72125 28.2475 6.0625 28.375 C5.381875 28.58125 4.70125 28.7875 4 29 C3.67 29.66 3.34 30.32 3 31 C2.01 20.77 1.02 10.54 0 0 Z " fill="#DED6E5" transform="translate(346,299)"/>
<path d="M0 0 C0.33 0.66 0.66 1.32 1 2 C1.57967529 2.02505615 2.15935059 2.0501123 2.7565918 2.07592773 C5.40042107 2.19246234 8.04394409 2.31492682 10.6875 2.4375 C12.05551758 2.49647461 12.05551758 2.49647461 13.45117188 2.55664062 C14.78051758 2.61948242 14.78051758 2.61948242 16.13671875 2.68359375 C16.94842529 2.72025146 17.76013184 2.75690918 18.59643555 2.79467773 C21 3 21 3 23.67895508 3.58227539 C26.01522541 4.24179121 26.01522541 4.24179121 28 3 C28 4.32 28 5.64 28 7 C18.27604657 6.367277 8.65544349 5.27665042 -1 4 C-0.67 2.68 -0.34 1.36 0 0 Z " fill="#E8E3F3" transform="translate(225,199)"/>
<path d="M0 0 C1.32 0 2.64 0 4 0 C3.83250244 0.53915039 3.66500488 1.07830078 3.49243164 1.63378906 C2.90257838 4.46812612 2.98828341 6.96706086 3.12109375 9.859375 C3.16943359 10.97441406 3.21777344 12.08945312 3.26757812 13.23828125 C3.32365234 14.39714844 3.37972656 15.55601562 3.4375 16.75 C3.48970703 17.92433594 3.54191406 19.09867187 3.59570312 20.30859375 C3.72526224 23.20600664 3.86022447 26.10306493 4 29 C3.67 29 3.34 29 3 29 C2.49491028 25.10480894 1.99682267 21.20875343 1.5 17.3125 C1.35691406 16.20970703 1.21382813 15.10691406 1.06640625 13.97070312 C0.93105469 12.90400391 0.79570312 11.83730469 0.65625 10.73828125 C0.53056641 9.75899658 0.40488281 8.77971191 0.27539062 7.77075195 C0.01567205 5.15767911 -0.05025329 2.62364032 0 0 Z " fill="#E4D7D6" transform="translate(350,332)"/>
<path d="M0 0 C0 3 0 3 -1.65234375 4.99291992 C-2.78349609 6.10050659 -2.78349609 6.10050659 -3.9375 7.23046875 C-4.74960938 8.03291016 -5.56171875 8.83535156 -6.3984375 9.66210938 C-7.25695312 10.49548828 -8.11546875 11.32886719 -9 12.1875 C-10.28777344 13.4549707 -10.28777344 13.4549707 -11.6015625 14.74804688 C-13.7278365 16.83888298 -15.86078464 18.92241983 -18 21 C-18.66 20.67 -19.32 20.34 -20 20 C-15.18619145 14.46189155 -10.35849639 9.18911118 -4.7265625 4.47265625 C-3.06312512 3.05384201 -1.52412711 1.56620423 0 0 Z " fill="#ACE4FE" transform="translate(112,76)"/>
<path d="M0 0 C0.66 0 1.32 0 2 0 C3.5078125 1.75 3.5078125 1.75 5.125 4 C5.66382813 4.7425 6.20265625 5.485 6.7578125 6.25 C7.16773438 6.8275 7.57765625 7.405 8 8 C5.03 7.505 5.03 7.505 2 7 C1.34 4.69 0.68 2.38 0 0 Z " fill="#3F54B9" transform="translate(251,199)"/>
<path d="M0 0 C0.33 0.66 0.66 1.32 1 2 C3.06102235 2.39138678 3.06102235 2.39138678 5.4375 2.5 C9.7787307 2.7787307 9.7787307 2.7787307 12 5 C7.71 4.67 3.42 4.34 -1 4 C-0.67 2.68 -0.34 1.36 0 0 Z " fill="#D9D2E1" transform="translate(225,199)"/>
<path d="M0 0 C0.33 1.32 0.66 2.64 1 4 C-3.29 3.67 -7.58 3.34 -12 3 C-12 2.67 -12 2.34 -12 2 C-11.21753906 1.93941406 -10.43507812 1.87882813 -9.62890625 1.81640625 C-8.61699219 1.73261719 -7.60507813 1.64882812 -6.5625 1.5625 C-5.55316406 1.48128906 -4.54382813 1.40007812 -3.50390625 1.31640625 C-1.06359221 1.26788532 -1.06359221 1.26788532 0 0 Z " fill="#DED3DF" transform="translate(252,202)"/>
<path d="M0 0 C2.5 1.8125 2.5 1.8125 5 4 C5 4.99 5 5.98 5 7 C3.68 7 2.36 7 1 7 C0.67 4.69 0.34 2.38 0 0 Z " fill="#3855C4" transform="translate(219,195)"/>
<path d="M0 0 C0.99 0.33 1.98 0.66 3 1 C3.6875 3.0625 3.6875 3.0625 4 5 C2.02 5.99 2.02 5.99 0 7 C0 4.69 0 2.38 0 0 Z " fill="#296DE8" transform="translate(403,123)"/>
</svg>
